<svg width="44" height="45" viewBox="0 0 44 45" fill="none" xmlns="http://www.w3.org/2000/svg">
<path d="M19.2881 15.4614C19.6521 15.4614 19.9473 15.1663 19.9473 14.8022V14.1193C19.9473 13.7551 19.6521 13.4601 19.2881 13.4601C18.924 13.4601 18.6289 13.7551 18.6289 14.1193V14.8022C18.6289 15.1663 18.924 15.4614 19.2881 15.4614Z" fill="#3772FF"/>
<path d="M14.0059 14.1193C14.0059 13.7551 13.7107 13.4601 13.3467 13.4601C12.9826 13.4601 12.6875 13.7551 12.6875 14.1193V14.8022C12.6875 15.1663 12.9826 15.4614 13.3467 15.4614C13.7107 15.4614 14.0059 15.1663 14.0059 14.8022V14.1193Z" fill="#3772FF"/>
<path d="M18.6634 18.6464C18.6634 18.2822 18.3683 17.9872 18.0042 17.9872C17.6402 17.9872 17.345 18.2822 17.345 18.6464C17.345 19.2063 16.8894 19.6619 16.3295 19.6619C15.7695 19.6619 15.3138 19.2063 15.3138 18.6464C15.3138 18.2822 15.0187 17.9872 14.6546 17.9872C13.3109 17.9872 14.0821 20.9803 16.3295 20.9803C17.6164 20.9803 18.6634 19.9333 18.6634 18.6464Z" fill="#3772FF"/>
<path d="M34.8049 28.4619C33.248 28.4619 31.7905 28.8946 30.5457 29.6457C29.5472 29.0196 29.4073 29.2024 20.1576 26.477V24.258C22.3777 23.0734 23.8926 20.7343 23.8926 18.0471V17.4136H24.6147C26.0352 17.4136 27.1909 16.258 27.1909 14.8374C27.1238 13.7927 27.4 12.9441 26.7643 11.9835V6.70568C26.7643 3.71939 24.2081 1.18223 21.1183 1.02868C20.4914 0.394105 19.6215 0 18.6611 0H13.5619C12.0844 0 10.6483 0.419154 9.40896 1.21202C9.10231 1.40811 9.01274 1.81584 9.20892 2.12249C9.40509 2.42914 9.81282 2.51871 10.1194 2.32244C11.1462 1.66563 12.3367 1.31837 13.5619 1.31837H18.6611C19.8398 1.31837 20.7987 2.27727 20.7987 3.45598V6.8384C19.8316 7.29236 16.6463 8.50209 11.3231 7.81171C10.6764 7.72742 10.0246 7.92632 9.53517 8.35628C8.51581 9.25198 8.82088 10.4312 8.76682 10.8248C8.22392 10.8473 7.78965 10.7519 7.16447 10.9805V7.71582C7.16447 6.43524 7.54135 5.19966 8.25442 4.14277C8.45806 3.84095 8.37843 3.43128 8.0767 3.22764C7.77479 3.02417 7.36513 3.10362 7.16157 3.40544C6.30103 4.68092 5.84619 6.17148 5.84619 7.71582V12.0628C5.28263 12.9859 5.53312 13.7505 5.47045 14.8375C5.47045 16.258 6.62605 17.4137 8.04655 17.4137H8.76876V18.0472C8.76876 20.7343 10.2837 23.0734 12.5037 24.258V26.4771C2.79548 29.2681 3.17974 29.1573 3.15618 29.1645C1.26836 29.7593 0 31.4887 0 33.468V34.7576C0 35.1217 0.29514 35.4168 0.659186 35.4168C1.02323 35.4168 1.31837 35.1217 1.31837 34.7576V33.468C1.31837 32.0698 2.21267 30.8476 3.54466 30.4243L8.49093 29.0023L7.39589 33.1074C7.32699 33.3656 7.42094 33.64 7.63364 33.8018L8.98356 34.829L8.18024 36.1827C8.02836 36.4385 8.06677 36.7643 8.27384 36.978L14.7732 43.6816H5.92626V37.3976C5.92626 37.0335 5.63112 36.7385 5.26707 36.7385C4.90303 36.7385 4.60789 37.0335 4.60789 37.3976V43.6816H1.31846V37.6303C1.31846 37.2662 1.02332 36.9711 0.659274 36.9711C0.295228 36.9711 8.78432e-05 37.2662 8.78432e-05 37.6303V44.3408C8.78432e-05 44.7049 0.295228 45 0.659274 45H34.8049C36.6044 45 38.3152 44.4319 39.7527 43.357C40.0442 43.139 40.1039 42.7259 39.886 42.4344C39.6679 42.1429 39.2546 42.0833 38.9633 42.3011C34.4453 45.6796 27.8541 42.4887 27.8541 36.7309C27.8541 32.8983 30.9723 29.7802 34.8049 29.7802C40.2676 29.7802 43.5608 35.8077 40.7145 40.3918C40.5225 40.7011 40.6175 41.1075 40.9268 41.2996C41.236 41.4915 41.6425 41.3965 41.8346 41.0872C45.2095 35.6517 41.3221 28.4619 34.8049 28.4619ZM23.8776 33.0202L22.4116 34.1356C22.1452 34.3383 22.0731 34.7086 22.2439 34.9965L23.0899 36.4221L17.3688 42.3232L20.0163 27.8082L22.6925 28.5776L23.8776 33.0202ZM16.3306 40.6672L14.4621 30.4234C15.637 30.8736 16.9623 30.8974 18.199 30.4234L16.3306 40.6672ZM25.8725 14.8374C25.8725 15.531 25.3083 16.0952 24.6147 16.0952H23.8925V12.1433H24.6147C25.3083 12.1433 25.8725 12.7075 25.8725 13.4011V14.8374ZM25.4459 6.70568V10.9633C24.8475 10.7587 24.4369 10.8456 23.8925 10.825V8.84215C23.8925 7.76187 23.1312 6.85668 22.1171 6.63343C22.0793 3.65866 22.2104 3.28609 21.9792 2.4919C23.9105 2.9978 25.4459 4.69384 25.4459 6.70568ZM6.78874 14.8374V13.401C6.78874 12.7074 7.35291 12.1432 8.04647 12.1432H8.76885V16.0951H8.04647C7.35291 16.0952 6.78874 15.531 6.78874 14.8374ZM10.087 18.0471C10.087 18.0559 10.0877 18.0209 10.0852 10.0542C10.0852 9.48367 10.5856 9.04562 11.1534 9.11918C14.4165 9.54247 18.7405 9.44025 21.63 7.89846H21.6305C22.1509 7.89846 22.5741 8.32174 22.5741 8.84206V18.047C22.5741 21.1994 20.0095 23.7641 16.8571 23.7641H15.8041C12.6517 23.7642 10.087 21.1995 10.087 18.0471ZM16.8571 25.0826C17.5453 25.0826 18.2101 24.9815 18.8392 24.7964V26.9137L18.4957 28.7967C17.1822 29.6694 15.4789 29.6694 14.1654 28.7967L13.8219 26.9138V24.7964C15.1816 25.1964 16.1153 25.0514 16.8571 25.0826ZM10.2496 34.1356L8.7837 33.0203L9.96874 28.5776L12.6449 27.8082L15.2925 42.3232L9.5713 36.4221L10.4173 34.9965C10.5881 34.7086 10.516 34.3383 10.2496 34.1356ZM30.33 43.6817H27.9788V41.3928C28.6023 42.3029 29.4026 43.0826 30.33 43.6817ZM26.6605 38.1648V43.6817H17.8879L24.3872 36.9781C24.5942 36.7644 24.6326 36.4386 24.4808 36.1828L23.6774 34.8291L25.0274 33.8019C25.2401 33.64 25.3339 33.3657 25.2651 33.1075L24.1701 29.0024C29.2437 30.4699 29.0631 30.3916 29.3599 30.513C27.1275 32.4703 26.1716 35.3798 26.6605 38.1648Z" fill="#3772FF"/>
<path d="M33.44 41.4852H36.1701C36.5342 41.4852 36.8293 41.1902 36.8293 40.8261V38.7552H38.9002C39.2643 38.7552 39.5593 38.4601 39.5593 38.096V35.3659C39.5593 35.0018 39.2643 34.7067 38.9002 34.7067H36.8293V32.6359C36.8293 32.2717 36.5342 31.9767 36.1701 31.9767H33.44C33.0759 31.9767 32.7808 32.2717 32.7808 32.6359V34.7067H30.71C30.3458 34.7067 30.0508 35.0018 30.0508 35.3659V38.096C30.0508 38.4601 30.3458 38.7552 30.71 38.7552H32.7808V40.8261C32.7808 41.1901 33.0759 41.4852 33.44 41.4852ZM31.3691 37.4367V36.025H33.4399C33.8041 36.025 34.0991 35.73 34.0991 35.3658V33.295H35.5108V35.3658C35.5108 35.73 35.8059 36.025 36.17 36.025H38.2409V37.4367H36.17C35.8059 37.4367 35.5108 37.7318 35.5108 38.0959V40.1668H34.0991V38.0959C34.0991 37.7318 33.8041 37.4367 33.4399 37.4367H31.3691Z" fill="#3772FF"/>
</svg>
