<svg width="26" height="44" viewBox="0 0 26 44" fill="none" xmlns="http://www.w3.org/2000/svg">
<path d="M20.8022 13.3472H18.6404V11.9669H18.7289C19.416 11.9669 19.975 11.4079 19.975 10.7208V9.25451C19.975 9.0364 19.9184 8.83144 19.8195 8.65294C19.9184 8.47445 19.975 8.26949 19.975 8.05138V1.2461C19.975 0.559028 19.416 0 18.7289 0H6.58501C5.89794 0 5.33891 0.559028 5.33891 1.2461V8.05129C5.33891 8.2694 5.39554 8.47436 5.49446 8.65286C5.39554 8.83135 5.33891 9.03631 5.33891 9.25442V10.7207C5.33891 11.4078 5.89794 11.9668 6.58501 11.9668H6.67361V13.3471H4.51175C2.02402 13.3471 0 15.3712 0 17.8589V21.9005C0 22.2565 0.288494 22.545 0.644536 22.545C1.00058 22.545 1.28907 22.2565 1.28907 21.9005V19.975H24.025V26.6943H1.28907V24.7095C1.28907 24.3535 1.00058 24.065 0.644536 24.065C0.288494 24.065 0 24.3535 0 24.7095V41.6367C0 42.9398 1.06022 44 2.3633 44H14.2442C14.6002 44 14.8887 43.7115 14.8887 43.3555C14.8887 42.9994 14.6002 42.7109 14.2442 42.7109H2.3633C1.77093 42.7109 1.28907 42.2291 1.28907 41.6367V38.6611H24.025V41.6367C24.025 42.2291 23.5431 42.7109 22.9507 42.7109H17.0532C16.6972 42.7109 16.4087 42.9994 16.4087 43.3555C16.4087 43.7115 16.6972 44 17.0532 44H22.9507C24.2538 44 25.314 42.9398 25.314 41.6367V32.9627C25.314 32.6067 25.0255 32.3182 24.6695 32.3182C24.3135 32.3182 24.025 32.6067 24.025 32.9627V37.372H13.3016V27.9834H24.025V30.1538C24.025 30.5099 24.3135 30.7983 24.6695 30.7983C25.0255 30.7983 25.314 30.5099 25.314 30.1538V17.859C25.3139 15.3712 23.29 13.3472 20.8022 13.3472ZM12.0124 37.372H1.28907V27.9834H12.0124V37.372ZM18.686 8.00832H17.3056V1.28907H18.686V8.00832ZM14.6362 8.00832V1.28907H16.0166V8.00832H14.6362ZM11.9668 8.00832V1.28907H13.3471V8.00832H11.9668ZM9.29731 8.00832V1.28907H10.6776V8.00832H9.29731ZM6.62798 1.28907H8.00832V8.00832H6.62798V1.28907ZM6.62798 9.29739H18.6861V10.6777H6.62798V9.29739ZM7.96269 11.9668H17.3513V13.3471H7.96269V11.9668ZM1.28907 18.6861V17.859C1.28907 16.082 2.73472 14.6363 4.51175 14.6363H20.8023C22.5793 14.6363 24.025 16.082 24.025 17.859V18.6861H1.28907Z" fill="#3772FF"/>
<path d="M3.57703 33.1856L6.19916 35.8032C6.45061 36.0543 6.8583 36.0545 7.10993 35.8032L9.73214 33.1856L9.736 33.1818C11.1266 31.77 10.1308 29.3636 8.13748 29.3636C7.57717 29.3636 7.05492 29.5684 6.65454 29.9212C6.25416 29.5684 5.732 29.3636 5.17169 29.3636C3.1831 29.3637 2.17763 31.7651 3.57703 33.1856ZM5.17169 30.6528C5.56279 30.6528 5.91032 30.8873 6.05702 31.2501C6.27367 31.7861 7.03533 31.7865 7.25207 31.2501C7.39876 30.8872 7.74629 30.6528 8.13748 30.6528C8.9935 30.6528 9.40179 31.6814 8.81922 32.2756L6.65463 34.4365L4.49175 32.2774C3.90196 31.6787 4.32031 30.6528 5.17169 30.6528Z" fill="#3772FF"/>
<path d="M15.3271 22.6445C15.6832 22.6445 15.9717 22.356 15.9717 22C15.9717 21.644 15.6832 21.3555 15.3271 21.3555H9.98828C9.63224 21.3555 9.34375 21.644 9.34375 22C9.34375 22.356 9.63224 22.6445 9.98828 22.6445H15.3271Z" fill="#3772FF"/>
<path d="M8.00977 24.6694C8.00977 25.0255 8.29826 25.314 8.6543 25.314H16.6626C17.0187 25.314 17.3072 25.0255 17.3072 24.6694C17.3072 24.3134 17.0187 24.0249 16.6626 24.0249H8.6543C8.29834 24.0249 8.00977 24.3134 8.00977 24.6694Z" fill="#3772FF"/>
<path d="M21.6008 29.3638H15.3262C14.9701 29.3638 14.6816 29.6523 14.6816 30.0083C14.6816 30.3643 14.9701 30.6528 15.3262 30.6528H21.6008C21.9569 30.6528 22.2453 30.3643 22.2453 30.0083C22.2453 29.6523 21.9569 29.3638 21.6008 29.3638Z" fill="#3772FF"/>
<path d="M21.6008 32.0332H15.3262C14.9701 32.0332 14.6816 32.3217 14.6816 32.6777C14.6816 33.0338 14.9701 33.3223 15.3262 33.3223H21.6008C21.9569 33.3223 22.2453 33.0338 22.2453 32.6777C22.2453 32.3217 21.9569 32.0332 21.6008 32.0332Z" fill="#3772FF"/>
<path d="M21.6008 34.7026H15.3262C14.9701 34.7026 14.6816 34.9911 14.6816 35.3472C14.6816 35.7032 14.9701 35.9917 15.3262 35.9917H21.6008C21.9569 35.9917 22.2453 35.7032 22.2453 35.3472C22.2453 34.9911 21.9569 34.7026 21.6008 34.7026Z" fill="#3772FF"/>
</svg>
