<svg width="42" height="42" viewBox="0 0 42 42" fill="none" xmlns="http://www.w3.org/2000/svg">
<path d="M37.7365 15.2102C38.3304 12.3839 35.3697 10.0517 32.7201 11.4171L30.3617 12.6411C28.599 8.45168 24.5396 6.70302 19.982 6.46538C20.9503 6.11037 21.9076 5.99102 22.7572 5.99102C24.4911 5.99102 25.2337 6.4023 25.7323 6.4023C26.0827 6.4023 26.5501 6.27434 26.9468 5.72754C27.9503 4.50993 28.1514 2.64594 27.258 1.1263L27.033 0.743721C26.553 -0.0728617 25.7496 0.00178329 24.4623 0.00178329C16.8628 0.00178329 13.49 3.18789 13.1543 3.52552C12.1656 4.38279 11.2875 5.3083 10.519 6.2987C10.0372 5.36851 9.50952 4.51887 8.94345 3.76807C8.82254 3.60771 8.63831 3.52322 8.45178 3.52322C8.12679 3.52322 7.83698 3.78448 7.83698 4.13892C7.83698 4.63986 8.44907 4.79957 9.70844 7.42986C9.16567 8.25178 8.69138 9.11372 8.28814 10.0157C5.83256 6.32872 2.57878 5.84222 1.4728 5.78759C1.30834 5.45464 1.22549 5.03679 1.22549 4.59015C1.22549 3.18617 2.04306 1.46745 3.80205 1.26172L3.93617 1.24606C5.78203 1.98537 6.05863 2.76381 6.5891 2.76381C6.85003 2.76381 7.20464 2.55735 7.20464 2.14893C7.20464 1.39469 4.40496 -0.0472691 3.94503 0.00621277L3.659 0.03968C1.41128 0.302578 0 2.36122 0 4.57613C0 4.85157 0.176687 7.01415 1.12296 7.01415C2.65695 7.01415 4.46197 7.69465 5.94478 9.11479C0.894591 11.6358 0.360183 15.6327 0.360183 17.7518C0.360183 22.258 3.52743 28.5371 4.36649 28.5371C4.69927 28.5371 4.9812 28.2677 4.9812 27.9212C4.9812 27.7004 4.90942 27.6421 4.59772 27.1041C4.47386 26.7929 4.00688 25.5056 4.00688 23.8067C4.00688 20.646 5.77317 17.5092 8.60935 16.3576C7.68179 18.1736 8.08413 20.3548 8.87644 22.222C8.94189 22.4311 9.03516 22.8545 9.03516 23.3003C9.03516 25.2268 7.56424 24.4865 7.56424 25.4467C7.56424 25.8096 7.86282 26.0624 8.17929 26.0624C8.55251 26.0624 10.2643 25.5236 10.2643 23.3005C10.2643 21.7733 9.74978 21.5332 9.42586 19.9081C12.4062 20.4351 11.3945 22.8902 12.5419 22.8902H12.5421C12.9028 22.8902 13.158 22.5944 13.158 22.2756C13.158 21.9476 12.6145 19.0099 9.30273 18.6487C9.32947 16.8655 10.2969 16.0567 10.6023 15.8457C12.6576 15.5971 14.6412 16.1797 16.329 17.5895C18.5909 19.4842 20.0631 21.9057 20.1007 21.9648C19.2034 22.4643 18.4097 23.5536 18.4097 24.9937C18.4097 25.3387 18.4459 25.4719 18.4983 25.9594C18.4352 26.0579 17.885 26.9504 16.971 26.9504C16.1861 26.9504 15.8557 26.4587 15.4641 26.4587C15.1185 26.4587 14.8482 26.7398 14.8482 27.0735C14.8482 27.781 16.3142 28.1829 16.9639 28.1829C17.8144 28.1829 18.3954 27.7787 18.5914 27.6358C18.5748 30.7905 17.481 29.8572 17.481 30.7466C17.481 31.1482 17.8221 31.3617 18.0966 31.3617C18.5925 31.3617 19.8275 30.6617 19.8275 27.59C19.8275 26.2675 19.64 25.3985 19.64 24.9933C19.64 23.6324 20.6137 23.0862 20.728 23.025C22.0706 25.4706 22.0346 26.5039 22.6489 27.5989C21.4465 30.6657 22.6745 32.6354 23.467 32.6354C23.8068 32.6354 24.0824 32.3601 24.0824 32.0203C24.0824 31.4333 23.3622 31.5299 23.3622 30.0876C23.3622 29.6276 23.4501 29.1509 23.5635 28.7367C24.1206 29.2091 24.7775 29.4556 25.507 29.4556C25.8468 29.4556 26.1222 29.1803 26.1222 28.8404C26.1222 28.5006 25.8468 28.2252 25.507 28.2252C22.4795 28.2252 23.817 21.9349 17.1107 16.6393C14.3791 14.3618 10.9829 14.0311 8.03877 15.2667C8.70311 10.9163 10.697 7.27786 13.9783 4.43955C17.5559 1.33957 22.8977 1.23252 24.4729 1.23252C25.9285 1.23252 25.9147 1.26927 25.9723 1.36738C26.0801 1.59886 26.5948 2.19331 26.5948 3.20135C26.5948 3.81713 26.394 4.4293 25.9984 4.94312C25.9345 5.01907 25.8462 5.17476 25.7311 5.17476C25.6629 5.17476 24.4385 4.76118 22.7533 4.76118C17.8867 4.76118 15.5804 7.54823 14.5554 12.2317C14.4679 12.6241 14.4067 13.0894 14.4067 13.2351C14.4067 13.5742 14.6826 13.8497 15.0211 13.8497C15.3446 13.8497 15.6154 13.5997 15.636 13.2732C15.6526 13.0099 15.7288 12.6242 15.7571 12.4964C16.0451 11.1802 16.6891 9.02004 17.9807 7.68923C22.7076 7.47235 27.4715 8.80956 29.2662 13.2097C28.614 13.5482 23.7036 16.0966 22.8035 16.5638C22.7611 16.5103 21.1107 14.5586 20.4272 14.5586C20.0844 14.5586 19.8115 14.8373 19.8115 15.1732C19.8115 15.3756 19.9113 15.574 20.0941 15.6917C20.1223 15.7099 22.9222 17.5447 23.1724 20.4847C23.1997 20.8055 23.4685 21.0477 23.7848 21.0477C24.1947 21.0477 24.4007 20.6984 24.4007 20.4332C24.4007 20.2991 24.327 19.0267 23.5005 17.5885L26.9993 15.7726C27.6945 16.6459 28.8482 17.1274 30.035 16.9108C30.1037 18.2343 30.0442 17.3316 29.476 33.7975C29.3806 37.0578 27.5568 40.7686 24.1935 40.7686C23.7864 40.7686 23.0077 40.7329 21.9402 40.5242C21.0957 40.3027 18.8071 39.3648 17.6873 35.5868C17.608 35.3195 17.3631 35.1464 17.0978 35.1464C16.665 35.1464 16.4821 35.5234 16.4821 35.7616C16.4821 35.9844 17.0442 37.8754 18.2024 39.3491C10.5021 36.0518 6.68663 29.5272 5.87759 29.5272C5.5526 29.5272 5.2628 29.7883 5.2628 30.1428C5.2628 30.1574 5.26239 30.1712 5.26239 30.1853C5.26239 30.3548 5.32744 30.5546 7.02532 32.4415V38.8342C7.02532 39.1741 7.30077 39.4494 7.64053 39.4494H10.1939C10.4773 39.4494 10.7239 39.2559 10.7914 38.9806L11.377 36.5911C16.2969 40.5563 21.037 42 24.1703 42C28.2635 42 30.5858 37.8269 30.7056 33.8387C31.2793 17.2385 31.3577 17.9925 31.2376 16.4437L31.3926 16.3633C31.6686 16.8004 32.2943 17.5668 33.4614 17.8692L35.8609 22.1528C36.1702 22.7049 37.013 22.4817 37.013 21.8516C37.013 21.7498 36.9877 21.6466 36.9344 21.5515L34.9072 17.9327C36.3021 17.6967 37.0106 16.7264 37.0959 16.6147L40.7648 23.4162V28.3893L38.2448 23.8908C37.9361 23.3398 37.0927 23.5607 37.0927 24.192C37.0927 24.2938 37.118 24.397 37.1713 24.4921L40.8433 31.047C41.1533 31.6003 41.9952 31.3748 41.9952 30.7464V23.2605C41.9952 22.9681 42.0909 23.3373 37.7365 15.2102ZM6.70484 15.9723C5.44006 16.8087 2.93888 19.3521 2.7877 23.3989C0.537362 17.6495 1.21294 12.6831 6.80508 10.0658C7.34277 10.7498 7.65267 11.333 7.72165 11.4416C7.22202 12.8642 6.88243 14.3755 6.70484 15.9723ZM9.71131 38.2188H8.25582V33.7511C8.95674 34.465 9.64831 35.1156 10.3264 35.7086L9.71131 38.2188ZM30.926 15.2189C30.5049 15.4054 30.149 15.7293 29.4737 15.7293C28.9761 15.7293 28.4903 15.5367 28.1275 15.1869C28.4191 15.0356 30.6792 13.8625 30.9394 13.7276C30.8223 14.2371 30.825 14.744 30.926 15.2189ZM34.333 16.7506C32.9945 16.7506 32.0809 15.6531 32.0809 14.5035C32.0809 13.1765 33.1672 12.2513 34.3279 12.2513C35.6664 12.2513 36.5801 13.3487 36.5801 14.4983C36.5801 15.7599 35.552 16.7506 34.333 16.7506Z" fill="#3772FF"/>
<path d="M34.33 13.8857C33.9909 13.8857 33.7148 14.161 33.7148 14.501C33.7148 14.8444 33.9956 15.1162 34.3301 15.1162C34.6747 15.1162 34.9453 14.8333 34.9453 14.501C34.9453 14.1671 34.674 13.8857 34.33 13.8857Z" fill="#3772FF"/>
<path d="M22.1346 12.5822C22.1346 12.2604 22.1091 11.3476 21.8482 10.4233C21.7716 10.1522 21.5248 9.97498 21.2564 9.97498C20.9013 9.97498 20.6406 10.2659 20.6406 10.5901C20.6406 10.7907 20.9039 11.4187 20.9039 12.5896C20.9039 12.6547 20.9029 12.6641 20.9029 12.6833C20.903 13.4575 22.1346 13.5821 22.1346 12.5822Z" fill="#3772FF"/>
<path d="M27.3998 20.5736C27.7429 21.0517 28.5149 20.8206 28.5149 20.2143C28.5149 19.7726 27.4948 18.6924 26.1303 18.6924C25.0808 18.6924 25.2217 19.9271 25.9936 19.9271C26.0343 19.9271 26.0558 19.9229 26.1282 19.9229C26.9086 19.923 27.3738 20.5382 27.3998 20.5736Z" fill="#3772FF"/>
<path d="M26.7109 23.4297C27.0464 23.4297 27.3262 23.1568 27.3262 22.8144C27.3262 22.4847 27.0582 22.1992 26.7109 22.1992C26.3562 22.1992 26.0957 22.4936 26.0957 22.8056C26.0957 22.8098 26.0958 22.8128 26.0958 22.8144C26.0957 23.1651 26.3813 23.4297 26.7109 23.4297Z" fill="#3772FF"/>
<path d="M25.0128 13.7653C25.9046 12.5684 26.1215 12.5063 26.1215 12.1442C26.1215 11.8103 25.852 11.5286 25.5067 11.5286C25.3246 11.5286 25.1443 11.609 25.0229 11.7632L24.046 13.0042C23.7323 13.4028 24.0118 14 24.529 14C24.7111 14.0001 24.8914 13.9195 25.0128 13.7653Z" fill="#3772FF"/>
<path d="M17.4805 12.1435C17.4805 12.4822 17.7543 12.7587 18.0957 12.7587C18.4337 12.7587 18.7109 12.4849 18.7109 12.1435C18.7109 11.8001 18.4307 11.5289 18.0956 11.5289C17.7555 11.5288 17.4805 11.8048 17.4805 12.1435Z" fill="#3772FF"/>
</svg>
