<svg width="42" height="42" viewBox="0 0 42 42" fill="none" xmlns="http://www.w3.org/2000/svg">
<path d="M1.98025 10.8989C2.22024 11.139 2.60949 11.139 2.84956 10.8989L3.31503 10.4335L4.42524 11.5437C3.36848 12.7782 2.47433 14.1518 1.77091 15.6343C1.62535 15.941 1.756 16.3077 2.06279 16.4532C2.36966 16.5987 2.73621 16.4681 2.88169 16.1613C4.25819 13.2603 6.41532 10.8045 9.11973 9.05941C18.8307 2.79317 32.0011 7.77093 35.0471 19.0195C35.1213 19.2934 35.3693 19.4738 35.6401 19.4738C35.6932 19.4738 35.7474 19.4668 35.8011 19.4522C36.1288 19.3634 36.3225 19.0258 36.2338 18.6981C35.503 15.999 34.1868 13.5747 32.4459 11.5457L33.558 10.4335L34.0235 10.899C34.2636 11.1391 34.6528 11.1391 34.8928 10.899L36.6931 9.09875C36.933 8.85892 36.9332 8.46943 36.6931 8.22944L33.0925 4.62892C32.8524 4.38885 32.4632 4.38885 32.2232 4.62892L30.4229 6.42918C30.183 6.66901 30.1828 7.0585 30.4229 7.29849L30.8884 7.76396L29.7071 8.94523C27.0344 6.88179 23.799 5.54708 20.3242 5.18931V3.77543H20.9825C21.322 3.77543 21.5972 3.50019 21.5972 3.1607V0.614731C21.5972 0.275235 21.322 0 20.9825 0H15.8905C15.551 0 15.2758 0.275235 15.2758 0.614731V3.1607C15.2758 3.50019 15.551 3.77543 15.8905 3.77543H16.5488V5.18849C13.1495 5.53536 9.90896 6.81548 7.1612 8.9404L5.98468 7.76388L6.45016 7.29841C6.69007 7.05858 6.69023 6.66909 6.45016 6.4291L4.6499 4.62876C4.40983 4.3886 4.02058 4.38868 3.78059 4.62876L0.179993 8.22927C-0.0599157 8.4691 -0.0600796 8.85859 0.179993 9.09859L1.98025 10.8989ZM32.6579 5.93281L35.3891 8.66401L34.4582 9.59496L31.727 6.86375L32.6579 5.93281ZM31.7578 8.63319L32.6887 9.56414L31.6143 10.6386C31.3066 10.3249 30.9876 10.0228 30.6589 9.73209L31.7578 8.63319ZM16.5053 1.22946H20.3679V2.54597H16.5053V1.22946ZM17.7783 3.77543H19.0948V5.10456C18.6651 5.08923 18.2583 5.08669 17.7783 5.10366V3.77543ZM6.21033 9.72815C5.88125 10.0196 5.5629 10.3223 5.25611 10.6358L4.18443 9.56414L5.11537 8.63319L6.21033 9.72815ZM4.21525 5.93281L5.14619 6.86375C4.28451 7.72544 3.27536 8.7345 2.41499 9.59496L1.48404 8.66401L4.21525 5.93281Z" fill="#3772FF"/>
<path d="M24.367 16.7291L19.6672 21.4289C18.0542 20.4801 16.002 21.6478 16.002 23.5287C16.002 24.8713 17.0942 25.9636 18.4369 25.9636C19.7794 25.9636 20.8717 24.8714 20.8717 23.5287C20.8717 23.08 20.7491 22.6596 20.5366 22.2983L25.2364 17.5984C25.4765 17.3584 25.4765 16.9691 25.2364 16.7291C24.9964 16.4891 24.6071 16.4891 24.367 16.7291ZM18.4368 24.7341C17.7721 24.7341 17.2313 24.1934 17.2313 23.5287C17.2313 22.8641 17.772 22.3233 18.4368 22.3233C19.1014 22.3233 19.6421 22.8641 19.6421 23.5287C19.6421 24.1933 19.1014 24.7341 18.4368 24.7341Z" fill="#3772FF"/>
<path d="M41.5226 26.9892C40.704 25.0339 38.9476 23.7696 36.8726 23.6075C36.8757 22.8642 36.8362 22.143 36.7545 21.4239C36.7161 21.0865 36.4118 20.8442 36.0742 20.8825C35.7369 20.9209 35.4945 21.2255 35.5329 21.5627C35.6106 22.2459 35.6475 22.9305 35.6428 23.6431C35.1834 23.7069 34.7396 23.8267 34.3197 23.9972C34.5803 15.0484 27.3854 7.63794 18.4367 7.63794C9.62143 7.63794 2.54597 14.8064 2.54597 23.5286C2.54597 36.0323 16.5839 43.7352 27.1247 36.8353L28.0757 37.7847C25.2265 39.7177 21.9092 40.7358 18.4367 40.7358C6.97965 40.7358 -1.36577 29.6535 1.95074 18.5825C2.04812 18.2573 1.86353 17.9147 1.5383 17.8172C1.21315 17.7198 0.870458 17.9044 0.773003 18.2297C0.260072 19.9419 0 21.7248 0 23.5286C0 38.3324 16.7175 47.2019 28.9603 38.6678L31.4071 41.1103C31.647 41.3498 32.0357 41.3499 32.2758 41.1103L35.4249 37.9667C35.6652 37.7269 35.6656 37.3376 35.4257 37.0973C35.1858 36.8571 34.7967 36.8567 34.5563 37.0966L31.8415 39.8066L24.9162 32.8935C25.9851 32.8971 25.6624 32.896 26.7495 32.8996C26.9553 32.8996 27.1474 32.7966 27.2614 32.6253L28.5338 30.7125L31.298 35.948C31.5343 36.3956 32.1805 36.3815 32.3971 35.9241L33.83 32.8996H36.231C36.5705 32.8996 36.8458 32.6244 36.8458 32.2849C36.8458 31.9454 36.5705 31.6701 36.231 31.6701H33.4409C33.2034 31.6701 32.9871 31.807 32.8854 32.0217L31.8117 34.288L29.1382 29.2241C28.9217 28.8138 28.342 28.7808 28.0828 29.1706L26.4209 31.6691L23.7586 31.6602C22.879 30.451 22.6945 28.897 23.2943 27.4644C24.7917 23.8881 29.8352 23.9681 31.2716 27.5207C31.4781 28.0317 32.2046 28.0322 32.4114 27.5207C33.8517 23.9581 38.8955 23.8979 40.3886 27.4641C41.0764 29.1069 40.7332 30.9093 39.4969 32.1646L36.4501 35.2061C36.2098 35.4461 36.2094 35.8352 36.4493 36.0755C36.6892 36.3158 37.0783 36.3162 37.3187 36.0763L40.3692 33.0311C41.9633 31.4125 42.4052 29.0974 41.5226 26.9892ZM31.8415 25.9953C29.4293 22.4674 23.8991 22.8362 22.1602 26.9895C21.2585 29.1433 21.7567 31.4501 23.3174 33.0347L26.2341 35.9462C24.0727 37.3075 21.6142 38.0714 19.0515 38.1768V36.2585C19.0515 35.919 18.7762 35.6437 18.4367 35.6437C18.0972 35.6437 17.822 35.919 17.822 36.2585V38.1759C15.6014 38.0837 13.5069 37.4956 11.6463 36.5191L12.6041 34.8603C12.7738 34.5663 12.6731 34.1904 12.3791 34.0206C12.0851 33.8508 11.7091 33.9515 11.5394 34.2456L10.5824 35.9031C8.76548 34.7457 7.21939 33.1997 6.06206 31.3828L7.71953 30.4258C8.01354 30.256 8.11427 29.88 7.94453 29.586C7.7747 29.2919 7.39881 29.1912 7.1048 29.361L5.44602 30.3188C4.46958 28.4583 3.88141 26.3639 3.78928 24.1432H5.70666C6.04616 24.1432 6.32139 23.868 6.32139 23.5285C6.32139 23.189 6.04616 22.9137 5.70666 22.9137H3.78928C3.88132 20.6931 4.4695 18.5987 5.44594 16.7382L7.1048 17.6961C7.3975 17.8651 7.77404 17.7664 7.94453 17.4711C8.11427 17.1771 8.01354 16.8011 7.71953 16.6314L6.06206 15.6744C7.21939 13.8575 8.7654 12.3114 10.5824 11.154L11.5394 12.8115C11.7096 13.1064 12.0859 13.2058 12.3791 13.0365C12.6731 12.8668 12.7738 12.4908 12.6041 12.1968L11.6463 10.538C13.5069 9.56155 15.6013 8.97338 17.822 8.88125V10.7986C17.822 11.1381 18.0972 11.4134 18.4367 11.4134C18.7762 11.4134 19.0515 11.1381 19.0515 10.7986V8.88125C21.2721 8.97338 23.3665 9.56155 25.227 10.5379L24.2693 12.1968C24.0996 12.4908 24.2003 12.8668 24.4943 13.0365C24.787 13.2055 25.1635 13.1068 25.334 12.8115L26.291 11.154C28.1079 12.3114 29.654 13.8574 30.8113 15.6744L29.1539 16.6314C28.8599 16.8011 28.7591 17.1771 28.9289 17.4711C29.0991 17.766 29.4754 17.8654 29.7686 17.6961L31.4274 16.7383C32.6942 19.1522 33.2767 21.8945 33.0491 24.723C32.5857 25.0769 32.1769 25.5046 31.8415 25.9953Z" fill="#3772FF"/>
</svg>
