<svg width="49" height="40" viewBox="0 0 49 40" fill="none" xmlns="http://www.w3.org/2000/svg">
<path d="M48.2822 9.8876H47.2603C46.1417 4.39321 41.4913 0 35.2268 0C30.6623 0 26.6162 2.5011 24.5 6.28658C22.3875 2.50779 18.346 0 13.7732 0C10.9203 0 8.27839 0.909264 6.13318 2.62926C5.82406 2.87717 5.77468 3.32827 6.02284 3.63696C6.27109 3.94556 6.72291 3.99488 7.03194 3.74715C8.9197 2.23359 11.2508 1.43357 13.7732 1.43357C18.2183 1.43357 22.1676 4.09417 23.8346 8.21176C24.0759 8.80784 24.9241 8.80803 25.1654 8.21176C26.8325 4.09417 30.7818 1.43357 35.2268 1.43357C40.6407 1.43357 44.6948 5.13561 45.7918 9.8876H42.795L41.967 8.64699C40.5131 6.46864 38.1416 6.94497 37.8128 6.88141C37.4163 6.88141 37.095 7.20224 37.095 7.5982C37.095 7.99415 37.4163 8.31498 37.8128 8.31498C38.187 8.37834 39.7987 7.98315 40.7725 9.44205L41.6666 10.7816C41.8928 11.1195 42.2707 11.3212 42.6774 11.3212H44.5918V21.9103H27.7994C27.3642 21.9103 27.012 21.5594 27.012 21.124C27.012 20.6908 27.3652 20.3383 27.7994 20.3383C27.8013 20.3383 27.803 20.338 27.8049 20.338H33.3812C33.7777 20.338 34.099 20.0172 34.099 19.6212C34.099 19.2253 33.7777 18.9045 33.3812 18.9045H27.7995C27.7976 18.9045 27.7958 18.9047 27.7939 18.9047H24.8537C24.4137 18.9047 24.0663 18.549 24.0663 18.1184C24.0663 17.6853 24.4182 17.3332 24.8512 17.3321C24.8519 17.3321 24.8525 17.3322 24.8531 17.3322H33.3812C33.7777 17.3322 34.099 17.0114 34.099 16.6154C34.099 16.2195 33.7777 15.8986 33.3812 15.8986H24.8567C24.8554 15.8986 24.8542 15.8985 24.853 15.8985H22.8459C22.412 15.8985 22.0591 15.546 22.0591 15.1121C22.0591 14.6789 22.412 14.3264 22.8459 14.3264H33.3811C33.7776 14.3264 34.0989 14.0056 34.0989 13.6096C34.0989 13.2137 33.7776 12.8928 33.3811 12.8928H24.853C24.4043 12.8928 24.0357 12.5166 24.0683 12.0489C24.0968 11.6408 24.459 11.321 24.893 11.321C25.0214 11.321 33.175 11.3208 35.0648 11.3207C35.4613 11.3207 35.7825 10.9999 35.7825 10.6039C35.7825 10.208 35.4613 9.88712 35.0648 9.88712H31.8611C31.3593 9.88129 30.6824 9.72016 30.4396 8.50669C30.4196 8.40625 30.5044 8.31479 30.607 8.31479H34.6844C35.0809 8.31479 35.4022 7.99396 35.4022 7.598C35.4022 7.20205 35.0809 6.88122 34.6844 6.88122H30.607C29.594 6.88122 28.8353 7.80491 29.0319 8.78739C29.1145 9.20064 29.2446 9.56858 29.4176 9.88741H24.8929C23.3394 9.88741 22.2127 11.4121 22.7754 12.894C21.5825 12.9313 20.6235 13.9119 20.6235 15.1128C20.6235 16.3129 21.5823 17.2933 22.7749 17.3309C22.6816 17.5757 22.6305 17.8411 22.6305 18.1183C22.6305 18.7105 22.8615 19.2679 23.282 19.6889C23.7023 20.1076 24.2605 20.3382 24.8535 20.3382H25.7202C25.6273 20.5826 25.5764 20.8473 25.5764 21.1239C25.5764 22.3496 26.5692 23.3437 27.7993 23.3437H39.4733L24.5 38.27L22.5137 36.29C23.1154 35.8483 23.4235 35.1843 23.4235 34.5014C23.4235 34.2248 23.3726 33.9601 23.2797 33.7157H24.1464C25.7128 33.7157 26.7732 32.1479 26.225 30.7085C27.4177 30.6709 28.3764 29.6903 28.3764 28.4897C28.3764 27.2895 27.4174 26.3088 26.2246 26.2716C26.788 24.7862 25.658 23.265 24.107 23.265H19.5824C19.7554 22.9463 19.8854 22.5782 19.968 22.165C20.165 21.1808 19.4042 20.2588 18.3929 20.2588H10.3363C9.28662 20.2588 8.29762 20.6709 7.56405 21.3872L6.04341 19.8713C2.10166 15.8751 2.04318 10.0242 5.01718 5.87763C5.24802 5.55584 5.17385 5.10799 4.85161 4.87747C4.52938 4.64715 4.0811 4.72102 3.85007 5.04281C0.479285 9.74243 0.575276 16.3705 5.02493 20.8818L6.68874 22.5404L6.20496 23.2652H0.717779C0.321278 23.2652 0 23.586 0 23.982V36.0046C0 36.4006 0.321278 36.7214 0.717779 36.7214H10.4083C10.8048 36.7214 11.1261 36.4006 11.1261 36.0046C11.1261 35.6087 10.8048 35.2878 10.4083 35.2878H4.40831V24.6987H6.32268C6.72932 24.6987 7.10716 24.4971 7.33407 24.1582L8.22738 22.8197C8.69853 22.1139 9.48684 21.6926 10.3362 21.6926H18.3928C18.4954 21.6926 18.5802 21.784 18.5602 21.8845C18.3191 23.0899 17.6495 23.257 17.1487 23.2648H13.9351C13.5386 23.2648 13.2173 23.5856 13.2173 23.9816C13.2173 24.3775 13.5386 24.6984 13.9351 24.6984C15.7972 24.6985 24.0298 24.6987 24.1068 24.6987C24.5408 24.6987 24.903 25.0185 24.9315 25.4267C24.9644 25.9 24.5897 26.27 24.1477 26.2706C24.1375 26.2706 15.6335 26.2706 15.6186 26.2706C15.2221 26.2706 14.9008 26.5914 14.9008 26.9874C14.9008 27.3833 15.2221 27.7042 15.6186 27.7042C16.6192 27.7042 25.177 27.7043 26.1539 27.7043C26.5877 27.7043 26.9406 28.0567 26.9406 28.4906C26.9406 28.9239 26.5877 29.2763 26.1539 29.2763C25.1774 29.2763 16.6192 29.2764 15.6186 29.2764C15.2221 29.2764 14.9008 29.5972 14.9008 29.9932C14.9008 30.3891 15.2221 30.71 15.6186 30.71H24.1467H24.1476C24.5811 30.7105 24.9335 31.0629 24.9335 31.4962C24.9335 31.9359 24.5773 32.2825 24.1461 32.2825C22.916 32.2825 16.767 32.2822 15.6185 32.2822C15.222 32.2822 14.9007 32.6031 14.9007 32.999C14.9007 33.395 15.222 33.7158 15.6185 33.7158C15.6282 33.7158 21.1846 33.7161 21.2003 33.7161C21.6344 33.7161 21.9877 34.0685 21.9877 34.5018C21.9877 34.9404 21.6322 35.2881 21.2003 35.2881H13.5362C13.1397 35.2881 12.8184 35.609 12.8184 36.0049C12.8184 36.4009 13.1397 36.7217 13.5362 36.7217H20.9141L23.9926 39.7905C24.2726 40.0697 24.7266 40.0699 25.0068 39.7905C42.435 22.4059 41.3891 23.4858 41.4766 23.3438H48.2822C48.6787 23.3438 49 23.023 49 22.627V10.6044C49 10.2085 48.6787 9.8876 48.2822 9.8876ZM2.97275 35.2878H1.43556V24.6987H2.97275V35.2878ZM47.5644 21.9103H46.0272V11.3212H47.5644V21.9103Z" fill="#3772FF"/>
</svg>
