<svg width="46" height="41" viewBox="0 0 46 41" fill="none" xmlns="http://www.w3.org/2000/svg">
<path d="M45.0196 7.58215C41.0076 -2.08897 27.8722 -2.53325 23.0001 6.4128C19.2423 -0.487228 10.148 -2.04237 4.4136 2.8393C4.12908 3.08138 4.09305 3.51042 4.33302 3.79748C4.57289 4.08453 4.99802 4.12089 5.28245 3.87881C10.7064 -0.738288 19.2692 1.19548 22.2258 7.8955L16.448 15.4628C15.4163 16.8039 16.1012 19.1143 19.15 19.1141C20.2274 19.114 21.4741 18.8216 23.1887 17.5164L28.213 13.6087L32.1305 17.5457C32.3941 17.8107 32.8209 17.8098 33.0834 17.5437C33.346 17.2776 33.3451 16.847 33.0814 16.582L30.1242 13.6101C31.2557 13.645 32.7606 13.5376 34.375 12.9967C34.7282 12.8783 34.9195 12.4935 34.8022 12.137C34.685 11.7806 34.3037 11.5876 33.9504 11.7059C32.048 12.3433 29.8691 12.3827 28.4221 12.0444C28.2177 11.9967 28.0131 12.0476 27.8585 12.1675C23.4829 15.4926 21.6446 17.299 20.0636 17.6526C18.9571 17.9 17.963 17.665 17.5895 17.3181C17.3074 17.0561 17.2735 16.6075 17.514 16.295C23.9434 7.87083 23.5707 8.38501 23.6248 8.25028C27.2524 -0.804476 39.9938 -1.01075 43.7766 8.1073C45.5132 12.2934 44.6459 16.8881 41.517 20.0941L39.0498 22.5799L35.1624 18.6732C34.8987 18.4083 34.472 18.409 34.2095 18.6752C33.9469 18.9413 33.9478 19.3719 34.2115 19.6368L39.3435 24.7942C40.0457 25.5029 40.0456 26.6559 39.3435 27.3647C38.6414 28.0731 37.4992 28.0732 36.7969 27.365L27.8363 18.3076C27.5734 18.0418 27.1468 18.0415 26.8834 18.3068C26.6201 18.5722 26.6197 19.0027 26.8827 19.2685L35.8437 28.3264C36.5459 29.035 36.5459 30.1881 35.8437 30.8967C35.1402 31.6068 34.0014 31.6073 33.2972 30.8972C33.2972 30.8972 33.2972 30.8972 33.2971 30.8971L24.3365 21.8397C24.0736 21.5739 23.647 21.5737 23.3836 21.839C23.1202 22.1044 23.1199 22.5349 23.3828 22.8007L32.3439 31.8585C33.046 32.5671 33.0461 33.7202 32.3439 34.4289C31.6416 35.1375 30.4991 35.1375 29.8 34.4319L28.7489 33.3578C28.6351 31.4386 26.8523 30.0502 24.9831 30.4355C25.0776 28.4293 23.3533 26.8908 21.4632 27.1227C21.7024 25.0324 19.9162 23.3136 17.9013 23.6C18.1853 20.7037 14.75 18.933 12.6102 20.9705L8.8794 24.523L4.48745 20.0983C0.539405 16.0531 0.464837 10.1376 3.42203 5.92564C3.6372 5.61918 3.56542 5.19476 3.26176 4.97761C2.95819 4.76055 2.53755 4.83282 2.32238 5.13937C-1.00397 9.87732 -0.890589 16.5261 3.53101 21.0566L7.90984 25.4683C6.02391 27.6677 7.83698 31.0938 10.7258 30.691C10.522 32.7305 12.2354 34.4098 14.2354 34.1682C13.9833 36.3264 15.8832 38.086 17.9862 37.6593C17.8445 40.5446 21.3087 42.1173 23.3482 40.0724C27.7141 35.8333 27.9985 35.8398 28.4288 34.9665L28.8438 35.3905C30.9517 37.518 34.5458 35.7558 34.1943 32.7659C36.2459 33.0108 37.9335 31.26 37.6939 29.2321C40.648 29.5878 42.4104 25.9662 40.2952 23.8316L40.0046 23.5396C41.2699 21.9999 44.9814 19.674 45.8366 14.4684C46.2153 12.1645 45.9328 9.7833 45.0196 7.58215ZM9.01785 28.8306C8.31781 28.1241 8.31565 26.9758 9.01156 26.2666L13.5348 21.9596C14.2479 21.2806 15.3495 21.2967 16.0428 21.9964C16.7609 22.7212 16.7438 23.8988 16.0053 24.6021L11.5789 28.8168C10.7569 29.6003 9.66515 29.4839 9.01785 28.8306ZM12.5846 32.3009C11.9264 31.6366 11.8325 30.5215 12.5939 29.7201C16.2268 26.2592 16.9695 25.5557 17.1014 25.4299C17.8146 24.7509 18.9161 24.767 19.6094 25.4666C20.3261 26.19 20.3119 27.3677 19.572 28.0723C14.2687 33.1224 15.2604 32.1708 15.1316 32.3009C14.4293 33.0095 13.2869 33.0096 12.5846 32.3009ZM22.4168 39.0894C22.412 39.094 22.4073 39.0986 22.4028 39.1032C21.699 39.8134 20.5597 39.8136 19.8558 39.1032C19.1557 38.3967 19.1536 37.2484 19.8495 36.5392L20.8012 35.633C21.0719 35.3752 21.0843 34.9449 20.8288 34.6717C20.5735 34.3985 20.147 34.3861 19.8764 34.6438L18.6346 35.8316C17.9308 36.5419 16.7916 36.5419 16.0877 35.8316C15.4249 35.1628 15.3399 34.0436 16.0961 33.2518C18.7992 30.6769 18.598 30.8717 20.6046 28.9606C21.3178 28.2815 22.4194 28.2977 23.1126 28.9973C23.8094 29.7006 23.8184 30.8354 23.1261 31.5495L22.0217 32.601C21.751 32.8588 21.7386 33.2891 21.994 33.5623C22.2494 33.8356 22.6759 33.848 22.9465 33.5902C22.9556 33.5816 24.3628 32.2418 24.3727 32.2321C25.0859 31.5531 26.1874 31.5692 26.8807 32.2689C27.6002 32.9951 27.5803 34.1728 26.8432 34.8745L22.4168 39.0894Z" fill="#3772FF"/>
</svg>
