<svg width="43" height="40" viewBox="0 0 43 40" fill="none" xmlns="http://www.w3.org/2000/svg">
<path d="M34.1415 31.0018H1.24757V1.24757H7.25194C7.59652 1.24757 7.87573 0.968279 7.87573 0.623784C7.87573 0.279289 7.59652 0 7.25194 0H1.20598C0.541028 0 0 0.541028 0 1.20598V31.0435C0 31.7084 0.541028 32.2494 1.20598 32.2494H18.0844V36.1689H17.4919C16.394 36.1689 15.5009 37.0621 15.5009 38.1598V39.3762C15.5009 39.7207 15.7801 40 16.1247 40H26.4587C26.8032 40 27.0824 39.7207 27.0824 39.3762V38.1598C27.0824 37.0621 26.1893 36.1689 25.0915 36.1689H24.499V32.2494H34.1416C34.4862 32.2494 34.7654 31.9702 34.7654 31.6257C34.7654 31.2812 34.4861 31.0018 34.1415 31.0018ZM25.8348 38.1598V38.7523H16.7484V38.1598C16.7484 37.7499 17.0819 37.4164 17.4918 37.4164H25.0914C25.5013 37.4164 25.8348 37.7499 25.8348 38.1598ZM23.2514 36.1688H19.332V32.2494H23.2514V36.1688Z" fill="#3772FF"/>
<path d="M41.3782 0H9.97144C9.62686 0 9.34766 0.279289 9.34766 0.623784C9.34766 0.968279 9.62686 1.24757 9.97144 1.24757H41.3366V31.0019H36.861C36.5164 31.0019 36.2372 31.2812 36.2372 31.6257C36.2372 31.9702 36.5164 32.2494 36.861 32.2494H41.3782C42.0432 32.2494 42.5842 31.7084 42.5842 31.0435V1.20598C42.5842 0.541028 42.0432 0 41.3782 0Z" fill="#3772FF"/>
<path d="M2.58398 3.20728V29.0422C2.58398 29.3866 2.86319 29.6659 3.20777 29.6659H39.3765C39.7211 29.6659 40.0003 29.3866 40.0003 29.0422V3.20728C40.0003 2.86278 39.7211 2.5835 39.3765 2.5835H3.20777C2.86327 2.5835 2.58398 2.86278 2.58398 3.20728ZM38.7528 19.8067H32.2499V12.4426H38.7528V19.8067ZM32.2499 28.4183V21.0542H38.7528V28.4183H32.2499ZM38.7528 11.195H32.2499V3.83106H38.7528V11.195ZM3.83155 3.83106H31.0023V28.4184H3.83155V3.83106Z" fill="#3772FF"/>
<path d="M29.4498 19.2886C29.3884 18.9495 29.0636 18.7244 28.7249 18.7859C28.3859 18.8473 28.1608 19.1719 28.2222 19.5109C28.5367 21.2481 28.4705 23.1166 28.0357 24.7718L28.0111 24.8702C27.8807 25.3458 27.3312 25.5653 26.9084 25.3081L22.2719 22.4873C22.0518 22.3534 21.9151 22.1102 21.9151 21.8525V20.33L21.9921 20.356C23.1908 20.7599 24.43 19.8706 24.43 18.605C24.43 17.8111 23.9246 17.1074 23.1724 16.8538L21.9151 16.4301V12.1969C21.9151 11.5701 22.6464 11.2189 23.1346 11.6269C23.5195 12.0428 25.9875 13.532 27.4364 16.9261C27.5717 17.243 27.9382 17.3903 28.255 17.255C28.5719 17.1198 28.7191 16.7532 28.5838 16.4364C26.9964 12.7176 24.3149 11.0829 23.9347 10.6698C22.6381 9.58563 20.6676 10.5091 20.6676 12.197V16.0098L20.045 15.7999C19.6183 15.6561 19.3317 15.2571 19.3317 14.8069V5.79078C19.3317 5.44628 19.0525 5.16699 18.7079 5.16699H16.1245C15.7799 5.16699 15.5007 5.44628 15.5007 5.79078V14.8034C15.5007 15.2536 15.2141 15.6526 14.7874 15.7964L14.1649 16.0063V12.1969C14.1649 10.5069 12.1926 9.58696 10.8977 10.6697L9.94852 11.463C5.94898 14.8062 4.30627 20.1132 5.60823 25.1631C5.93551 26.4523 7.41953 27.0752 8.57228 26.374L13.2087 23.5531C13.7984 23.1944 14.1647 22.5428 14.1647 21.8525V19.9062L16.6983 19.0523C17.1609 18.8963 17.6705 18.8964 18.1335 19.0527L20.6676 19.9086V21.8525C20.6676 22.5426 21.0339 23.1943 21.6235 23.553L26.26 26.3738C27.3137 27.0149 28.8511 26.599 29.2423 25.0886C29.7224 23.2611 29.7961 21.2013 29.4498 19.2886ZM18.0841 10.3339H16.7482V8.99802H18.0841V10.3339ZM16.7481 11.5815H18.084V12.9174H16.7481V11.5815ZM18.0841 6.41456V7.75045H16.7482V6.41456H18.0841ZM12.9171 21.8525C12.9171 22.1102 12.7804 22.3533 12.5603 22.4873L7.9238 25.3081C7.50104 25.5655 6.95128 25.3456 6.82112 24.8701C6.81521 24.8429 6.80731 24.8128 6.79658 24.772C5.62828 20.326 7.11804 15.4549 10.7485 12.4201L11.6977 11.6267C11.9249 11.4369 12.2206 11.3983 12.4888 11.5237C12.757 11.649 12.9171 11.9007 12.9171 12.1968V16.4265L11.6598 16.8503C10.9076 17.1039 10.4021 17.8076 10.4021 18.6015C10.4021 19.8669 11.6414 20.7567 12.8401 20.3525L12.9171 20.3266V21.8525ZM16.2997 17.8701L12.4416 19.1704C12.053 19.3015 11.6496 19.0133 11.6496 18.6015C11.6496 18.3436 11.8139 18.115 12.0582 18.0327L15.1856 16.9787C16.1202 16.6638 16.7481 15.7896 16.7481 14.8034V14.165H18.084V14.8068C18.084 15.7929 18.7119 16.6672 19.6464 16.9821L22.7739 18.0361C23.0183 18.1184 23.1825 18.347 23.1825 18.605C23.1825 19.0158 22.7805 19.3048 22.3908 19.1739L18.5324 17.8709C17.8133 17.628 17.0204 17.6274 16.2997 17.8701Z" fill="#3772FF"/>
<path d="M5.78979 6.41455H7.72733C8.07191 6.41455 8.35111 6.13526 8.35111 5.79077C8.35111 5.44628 8.07191 5.16699 7.72733 5.16699H5.78979C5.44522 5.16699 5.16602 5.44628 5.16602 5.79077C5.16602 6.13526 5.44522 6.41455 5.78979 6.41455Z" fill="#3772FF"/>
<path d="M5.78979 8.99805H8.93838C9.28296 8.99805 9.56216 8.71876 9.56216 8.37427C9.56216 8.02977 9.28296 7.75049 8.93838 7.75049H5.78979C5.44522 7.75049 5.16602 8.02977 5.16602 8.37427C5.16602 8.71876 5.44522 8.99805 5.78979 8.99805Z" fill="#3772FF"/>
<path d="M34.2097 6.84521H35.5014C35.846 6.84521 36.1252 6.56593 36.1252 6.22143C36.1252 5.87694 35.846 5.59766 35.5014 5.59766H34.2097C33.8651 5.59766 33.5859 5.87694 33.5859 6.22143C33.5859 6.56593 33.8651 6.84521 34.2097 6.84521Z" fill="#3772FF"/>
<path d="M33.5859 8.80493C33.5859 9.14942 33.8651 9.42871 34.2097 9.42871H36.7932C37.1377 9.42871 37.4169 9.14942 37.4169 8.80493C37.4169 8.46044 37.1377 8.18115 36.7932 8.18115H34.2097C33.8651 8.18115 33.5859 8.46044 33.5859 8.80493Z" fill="#3772FF"/>
<path d="M34.2097 15.4568H35.5014C35.846 15.4568 36.1252 15.1775 36.1252 14.833C36.1252 14.4885 35.846 14.2092 35.5014 14.2092H34.2097C33.8651 14.2092 33.5859 14.4885 33.5859 14.833C33.5859 15.1775 33.8651 15.4568 34.2097 15.4568Z" fill="#3772FF"/>
<path d="M33.5859 17.4165C33.5859 17.761 33.8651 18.0403 34.2097 18.0403H36.7932C37.1377 18.0403 37.4169 17.761 37.4169 17.4165C37.4169 17.072 37.1377 16.7927 36.7932 16.7927H34.2097C33.8651 16.7927 33.5859 17.072 33.5859 17.4165Z" fill="#3772FF"/>
<path d="M34.2097 24.0684H35.5014C35.846 24.0684 36.1252 23.7891 36.1252 23.4446C36.1252 23.1001 35.846 22.8208 35.5014 22.8208H34.2097C33.8651 22.8208 33.5859 23.1001 33.5859 23.4446C33.5859 23.7891 33.8651 24.0684 34.2097 24.0684Z" fill="#3772FF"/>
<path d="M36.7931 25.4043H34.2097C33.8651 25.4043 33.5859 25.6836 33.5859 26.0281C33.5859 26.3726 33.8651 26.6519 34.2097 26.6519H36.7932C37.1377 26.6519 37.4169 26.3726 37.4169 26.0281C37.4169 25.6836 37.1377 25.4043 36.7931 25.4043Z" fill="#3772FF"/>
</svg>
