<svg width="38" height="47" viewBox="0 0 38 47" fill="none" xmlns="http://www.w3.org/2000/svg">
<path d="M26.5603 14.6013C26.2417 14.809 26.1518 15.2357 26.3595 15.5541C27.3958 17.1437 27.6569 19.7218 25.7856 21.6217L17.2107 30.1816L9.45362 22.4382L11.5049 22.445H11.5072C11.7376 22.445 11.9528 22.3297 12.0805 22.1378L13.5058 19.9953L16.6019 25.8595C16.8666 26.3609 17.5904 26.3451 17.8331 25.8328L19.4381 22.445H22.1275C22.5078 22.445 22.8161 22.1367 22.8161 21.7564C22.8161 21.3762 22.5078 21.0679 22.1275 21.0679H19.0023C18.7363 21.0679 18.494 21.2212 18.3801 21.4616L17.1775 24.0001L14.1829 18.328C13.9411 17.8701 13.2921 17.8298 13.0006 18.2682L11.1391 21.0667L8.1571 21.0568C5.90549 17.9614 8.06327 13.3936 12.0863 13.3936C14.0682 13.3936 15.8291 14.5815 16.5724 16.42C16.8037 16.9924 17.6175 16.993 17.849 16.42C18.9237 13.762 21.9634 12.7167 24.3784 13.8291C24.7238 13.9882 25.1328 13.8371 25.2919 13.4917C25.451 13.1464 25.2999 12.7374 24.9546 12.5783C22.3313 11.3699 18.9867 12.1141 17.2107 14.7114C16.0689 13.0415 14.1729 12.0165 12.0863 12.0165C6.56844 12.0165 3.80629 18.6807 7.6628 22.5963L16.7242 31.6418C16.9929 31.9101 17.4283 31.9102 17.6972 31.6418L26.7627 22.5921C28.8279 20.4955 29.1364 17.292 27.5133 14.8019C27.3054 14.4836 26.8787 14.3937 26.5603 14.6013Z" fill="#3772FF"/>
<path d="M33.1187 30.9938C33.9809 29.5522 34.4185 28.1922 34.4185 26.9445V7.04642C34.4185 6.76154 34.243 6.50612 33.9772 6.40376L17.4566 0.0459272C17.2974 -0.0153091 17.1212 -0.0153091 16.9619 0.0459272L0.441232 6.40376C0.175354 6.50603 0 6.76154 0 7.04642V20.4296C0 20.8099 0.308293 21.1182 0.688564 21.1182C1.06883 21.1182 1.37713 20.8099 1.37713 20.4296V7.51923L17.2092 1.42636L33.0413 7.51923V26.9446C33.0413 27.9632 32.6526 29.1137 31.8876 30.3688C31.3751 30.1583 30.8382 29.9958 30.2822 29.8867C31.0514 28.7331 31.4417 27.7184 31.4417 26.8637V9.2411C31.4417 8.95842 31.269 8.70448 31.006 8.60064L17.4621 3.2528C17.2996 3.18872 17.1188 3.18872 16.9563 3.2528L3.41243 8.60064C3.14949 8.70448 2.97671 8.95842 2.97671 9.2411V26.8636C2.97671 29.9741 8.08328 34.3083 10.2788 36.0273C12.7331 37.9491 15.207 39.5498 16.8501 40.5543C17.0711 40.6894 17.3483 40.6888 17.5684 40.5543C18.1684 40.1875 19.0217 39.653 20.0023 39.0012C20.0464 39.6012 20.152 40.1842 20.3128 40.7443C18.8891 41.6757 17.7481 42.3561 17.2093 42.6705C12.4292 39.8798 1.37713 32.4872 1.37713 26.9446V23.4305C1.37713 23.0502 1.06883 22.7419 0.688564 22.7419C0.308293 22.7419 0 23.0502 0 23.4305V26.9445C0 30.1655 2.86819 34.0394 8.52497 38.4585C12.6485 41.6798 16.8299 44.0419 16.8717 44.0654C17.0812 44.1833 17.3372 44.1833 17.5468 44.0654C17.6058 44.0322 18.9192 43.2914 20.8124 42.0625C23.0142 46.6875 28.6792 48.3579 33.0024 45.8049C33.3299 45.6116 33.4386 45.1894 33.2452 44.862C33.0519 44.5345 32.6296 44.4259 32.3023 44.6191C27.5038 47.4527 21.3559 43.9901 21.3559 38.3624C21.3559 34.359 24.613 31.1019 28.6164 31.1019C34.6736 31.1019 38.0099 38.0873 34.3624 42.8011C34.1297 43.1019 34.1849 43.5344 34.4857 43.7671C34.7865 43.9998 35.2189 43.9445 35.4516 43.6439C38.5862 39.5927 37.5242 33.6957 33.1187 30.9938ZM20.0425 37.3133C18.9388 38.0681 17.9423 38.704 17.2091 39.1584C15.6083 38.1671 13.358 36.6894 11.1277 34.9431C6.12794 31.0283 4.35383 28.1439 4.35383 26.8636V9.7096L17.2092 4.6336L30.0645 9.7096V26.8637C30.0645 27.5539 29.5822 28.5692 28.7067 29.7261C24.2501 29.6795 20.5645 33.0223 20.0425 37.3133Z" fill="#3772FF"/>
<path d="M32.8923 36.248H30.7291V34.0848C30.7291 33.7045 30.4208 33.3962 30.0405 33.3962H27.1888C26.8085 33.3962 26.5002 33.7045 26.5002 34.0848V36.248H24.337C23.9567 36.248 23.6484 36.5563 23.6484 36.9366V39.7883C23.6484 40.1686 23.9567 40.4769 24.337 40.4769H26.5002V42.6401C26.5002 43.0203 26.8085 43.3286 27.1888 43.3286H30.0405C30.4208 43.3286 30.7291 43.0203 30.7291 42.6401V40.4769H32.8923C33.2725 40.4769 33.5808 40.1686 33.5808 39.7883V36.9366C33.5808 36.5563 33.2725 36.248 32.8923 36.248ZM32.2037 39.0998H30.0405C29.6602 39.0998 29.3519 39.4081 29.3519 39.7884V41.9516H27.8773V39.7884C27.8773 39.4081 27.569 39.0998 27.1888 39.0998H25.0256V37.6252H27.1888C27.569 37.6252 27.8773 37.3169 27.8773 36.9367V34.7735H29.3519V36.9367C29.3519 37.3169 29.6602 37.6252 30.0405 37.6252H32.2037V39.0998Z" fill="#3772FF"/>
</svg>
