<svg width="45" height="42" viewBox="0 0 45 42" fill="none" xmlns="http://www.w3.org/2000/svg">
<path d="M41.1523 15.982C41.7785 13.4468 40.7348 10.707 38.3762 9.29103C39.0456 5.86536 36.1405 2.81238 32.7045 3.28062C30.6313 -0.98771 24.5051 -1.14813 22.2705 3.15001C20.0361 -1.14778 13.9269 -0.99348 11.8389 3.28088C8.39119 2.80941 5.49758 5.87585 6.16479 9.29103C3.78995 10.7168 2.76806 13.4638 3.38842 15.9825C1.74898 16.9917 0.56431 18.6044 0.102805 20.4806C0.0162569 20.8322 0.231229 21.1874 0.582844 21.274C0.936382 21.3606 1.29001 21.1439 1.37612 20.7939C1.73377 19.3403 2.62137 18.08 3.85202 17.2455C4.08972 17.7221 4.38984 18.1694 4.74941 18.5741C4.98991 18.8448 5.4043 18.8694 5.67505 18.6289C5.9458 18.3884 5.97027 17.974 5.72977 17.7033C5.31006 17.2308 4.99297 16.6845 4.78867 16.0979C4.78709 16.0929 4.78596 16.0878 4.78421 16.0827C3.709 12.9616 6.04144 9.72674 9.31533 9.72674C9.67744 9.72674 9.971 9.43326 9.971 9.07107C9.971 8.70888 9.67744 8.4154 9.31533 8.4154C8.64786 8.4154 8.00574 8.52459 7.40409 8.72348C7.15162 6.39742 9.05542 4.40899 11.3816 4.55245C11.2887 4.94331 11.2308 5.37623 11.2515 5.8227C11.2677 6.17388 11.5624 6.46272 11.9369 6.44734C12.2986 6.43055 12.5782 6.1237 12.5614 5.76194C12.4716 3.82561 14.2835 1.30705 17.089 1.30705C19.5845 1.30705 21.6148 3.33736 21.6148 5.83284V13.045C20.5256 11.9329 19.0194 11.2769 17.3909 11.2769C12.1398 11.2769 9.50539 17.6219 13.1787 21.3513L21.6148 29.7726V36.1628C21.6148 38.6583 19.5845 40.6886 17.089 40.6886C15.4362 40.6886 13.9195 39.7739 13.1306 38.3561C13.8015 38.0714 14.4116 37.6444 14.9107 37.0943C15.154 36.8261 15.1338 36.4113 14.8655 36.1681C14.5972 35.9246 14.1826 35.9449 13.9394 36.2132C11.3187 39.1024 6.39803 36.5238 7.53199 32.6285C7.73919 31.9167 8.15383 31.2751 8.73799 30.7882C9.01617 30.5564 9.05368 30.1429 8.82183 29.8648C8.5899 29.5865 8.17656 29.5492 7.89838 29.781C7.34832 30.2395 6.91094 30.8004 6.60112 31.4237C5.4585 30.633 4.69093 29.3633 4.54808 27.9703C4.52657 27.7609 4.40602 27.5748 4.22392 27.4695C2.68466 26.5798 1.61924 25.0728 1.30076 23.3348C1.23546 22.9786 0.893632 22.7428 0.537646 22.8081C0.181486 22.8733 -0.0543808 23.2149 0.0108367 23.5712C0.378974 25.5804 1.56565 27.3355 3.28674 28.4342C3.56851 30.1993 4.63576 31.777 6.16496 32.7035C5.49871 36.11 8.38026 39.1878 11.8388 38.7148C13.9206 42.9846 20.0336 43.148 22.2704 38.8457C23.2436 40.7177 25.2002 42 27.452 42C29.6901 42 31.734 40.6993 32.7019 38.7129C33.4023 38.8093 34.0772 38.759 34.7139 38.5875C35.0636 38.4934 35.2707 38.1336 35.1766 37.7839C35.0824 37.4343 34.7227 37.2272 34.373 37.3213C33.0138 37.6873 31.5519 37.263 30.5998 36.2133C30.3566 35.9452 29.942 35.925 29.6737 36.1681C29.4054 36.4114 29.3852 36.8261 29.6285 37.0944C30.1278 37.6449 30.7386 38.0722 31.41 38.3568C30.621 39.7742 29.1045 40.6887 27.4519 40.6887C24.9563 40.6887 22.926 38.6584 22.926 36.1629V29.7727L31.366 21.3474C33.2734 19.4109 33.6177 16.5219 32.2228 14.1585C32.0388 13.8467 31.6369 13.7431 31.3249 13.9271C31.0131 14.1112 30.9095 14.5132 31.0936 14.8251C31.9993 16.3596 32.146 18.687 30.4357 20.4234L22.2704 28.5743L14.884 21.2009L16.8372 21.2074H16.8394C17.0588 21.2074 17.2637 21.0976 17.3853 20.9148L18.7425 18.8746L21.6907 24.4588C21.9428 24.9361 22.632 24.9212 22.8631 24.4334L24.3914 21.2074H26.9524C27.3145 21.2074 27.608 20.9139 27.608 20.5517C27.608 20.1895 27.3145 19.896 26.9524 19.896H23.9764C23.723 19.896 23.4923 20.042 23.3838 20.271L22.2387 22.6881L19.3871 17.287C19.1577 16.8525 18.5401 16.811 18.2614 17.23L16.4888 19.8948L13.6493 19.8854C11.5052 16.938 13.5599 12.5884 17.3908 12.5884C19.278 12.5884 20.9548 13.7195 21.6626 15.4702C21.6628 15.4709 21.6633 15.4716 21.6636 15.4723C21.8877 16.0205 22.6586 16.0075 22.8773 15.4723C22.8776 15.4716 22.878 15.4709 22.8784 15.4702C23.9231 12.8863 26.9498 11.8778 29.2889 13.0978C29.6101 13.265 30.0059 13.1407 30.1735 12.8195C30.341 12.4984 30.2164 12.1025 29.8953 11.935C27.7139 10.7975 24.8213 11.1103 22.9262 13.045V5.83284C22.9262 3.33736 24.9565 1.30705 27.4521 1.30705C30.3278 1.30705 32.0683 3.91155 31.9823 5.76185C31.9655 6.12361 32.2451 6.43046 32.6069 6.44734C32.9773 6.46255 33.2757 6.17799 33.2923 5.82279C33.3131 5.37623 33.255 4.94323 33.1622 4.55236C35.4825 4.41073 37.3902 6.39383 37.1369 8.72409C36.5348 8.52485 35.8921 8.4154 35.224 8.4154C34.8619 8.4154 34.5684 8.70888 34.5684 9.07107C34.5684 9.43326 34.8619 9.72674 35.224 9.72674C39.3983 9.72674 41.5044 14.6695 38.8095 17.7033C38.5691 17.974 38.5936 18.3884 38.8642 18.6289C39.1351 18.8694 39.5495 18.8448 39.7899 18.5741C40.1498 18.1689 40.4503 17.7209 40.6881 17.2438C44.3908 19.7478 44.1593 25.2487 40.3172 27.4693C40.1351 27.5745 40.0145 27.7607 39.993 27.9701C39.8502 29.3636 39.082 30.6338 37.9387 31.4244C37.6289 30.8008 37.1913 30.2395 36.641 29.7808C36.3629 29.5491 35.9494 29.5863 35.7175 29.8647C35.4857 30.1428 35.5232 30.5563 35.8014 30.788C37.3364 32.0675 37.6078 34.3223 36.4188 35.9249C36.2031 36.2158 36.2639 36.6264 36.5548 36.8421C36.8449 37.0574 37.2559 36.9976 37.472 36.7062C38.3254 35.5559 38.6494 34.1187 38.373 32.7048C39.9039 31.7784 40.9725 30.2002 41.2544 28.4336C45.8102 25.5201 45.7792 18.8249 41.1523 15.982Z" fill="#3772FF"/>
<path d="M6.55208 22.7893C6.19164 22.7623 5.87718 23.0352 5.8513 23.3964C5.82551 23.7577 6.09731 24.0714 6.45854 24.0972C8.50607 24.2444 10.3018 22.6982 10.4491 20.6396C10.544 19.3144 9.91917 18.0274 8.81852 17.281C8.51883 17.0778 8.11109 17.1561 7.90784 17.4556C7.70458 17.7554 7.78274 18.1631 8.08251 18.3663C8.79701 18.8509 9.20266 19.6861 9.14111 20.5461C9.04582 21.8783 7.88406 22.8846 6.55208 22.7893Z" fill="#3772FF"/>
<path d="M17.4158 36.3295C17.6988 36.5541 18.1113 36.5079 18.337 36.2236C19.4635 34.8046 19.2253 32.7335 17.8062 31.607C16.8903 30.88 15.6449 30.6948 14.5561 31.1242C14.2192 31.257 14.0537 31.6377 14.1865 31.9746C14.3193 32.3115 14.7001 32.4769 15.0369 32.3442C15.6917 32.0863 16.4406 32.1973 16.991 32.6341C17.8438 33.3111 17.9869 34.5556 17.31 35.4083C17.0847 35.6919 17.1322 36.1044 17.4158 36.3295Z" fill="#3772FF"/>
<path d="M18.4174 5.18803C18.4219 4.82584 18.132 4.52878 17.7699 4.52432C17.4083 4.51662 17.1106 4.80975 17.1062 5.17177C17.0903 6.45662 15.8602 7.40438 14.5983 7.05136C14.2494 6.95354 13.8878 7.15714 13.7901 7.50579C13.6924 7.85443 13.8959 8.21636 14.2445 8.31401C16.349 8.90403 18.3911 7.31923 18.4174 5.18803Z" fill="#3772FF"/>
<path d="M36.6554 18.3664C36.9551 18.1632 37.0333 17.7555 36.8301 17.4557C36.6269 17.156 36.2192 17.0778 35.9194 17.2811C34.8187 18.0275 34.1938 19.3145 34.2888 20.6397C34.4359 22.6955 36.2288 24.2449 38.2793 24.0973C38.6406 24.0715 38.9124 23.7577 38.8866 23.3965C38.8608 23.0353 38.547 22.7618 38.1858 22.7894C36.8534 22.8852 35.6922 21.8783 35.5968 20.5462C35.5351 19.6862 35.9408 18.851 36.6554 18.3664Z" fill="#3772FF"/>
<path d="M29.7005 32.3441C30.0373 32.4767 30.4182 32.3115 30.551 31.9745C30.6838 31.6376 30.5183 31.2568 30.1813 31.1241C29.0925 30.695 27.8471 30.8799 26.9311 31.6069C25.512 32.7334 25.2739 34.8044 26.4004 36.2235C26.6262 36.508 27.0388 36.5538 27.3216 36.3294C27.6052 36.1043 27.6526 35.6918 27.4274 35.4082C26.1816 33.8386 27.8186 31.6023 29.7005 32.3441Z" fill="#3772FF"/>
<path d="M30.1394 7.0513C28.8802 7.4044 27.6474 6.45875 27.6316 5.17171C27.6272 4.8124 27.3346 4.52417 26.9761 4.52417C26.9734 4.52417 26.9706 4.52417 26.9679 4.52426C26.6058 4.52872 26.3159 4.82578 26.3204 5.18797C26.3466 7.31418 28.386 8.90484 30.4932 8.31404C30.8419 8.21638 31.0454 7.85445 30.9477 7.50581C30.85 7.15717 30.4885 6.95374 30.1394 7.0513Z" fill="#3772FF"/>
</svg>
