<svg width="34" height="48" viewBox="0 0 34 48" fill="none" xmlns="http://www.w3.org/2000/svg">
<path d="M27.5275 11.2536L27.274 8.1867C27.1628 6.86191 26.0343 5.82418 24.7048 5.82418H24.1534L23.7146 0.643788C23.6839 0.279753 23.3794 0 23.014 0H10.4265C10.0611 0 9.75662 0.279753 9.72587 0.643788L9.28712 5.82418H8.73717C7.40779 5.82418 6.27931 6.86191 6.16803 8.18736L5.91424 11.2445C4.48117 12.4601 3.25303 13.9117 2.29658 15.5387C2.0998 15.8734 2.21164 16.3043 2.54643 16.5012C2.88102 16.6979 3.31209 16.5862 3.50897 16.2513C4.83817 13.9901 6.73756 12.095 9.00183 10.7709C19.0701 4.8833 32.0337 12.1086 32.0337 24C32.0337 32.4841 25.1223 39.3135 16.7203 39.3135C6.21124 39.3135 -1.2292 28.8892 2.26677 18.9273C2.39539 18.5609 2.20255 18.1596 1.83617 18.031C1.46979 17.9025 1.06854 18.0952 0.939911 18.4616C-1.28864 24.8116 0.475844 32.1293 5.91312 36.7464L6.16662 39.8133C6.27781 41.138 7.40629 42.1758 8.73577 42.1758H9.28721L9.72597 47.3562C9.75681 47.7202 10.0612 48 10.4266 48H13.5253C13.9136 48 14.2284 47.6852 14.2284 47.2969C14.2284 46.9086 13.9136 46.5937 13.5253 46.5937H11.0726L10.4725 39.5077C12.4038 40.2885 14.5125 40.7197 16.7203 40.7197C18.9282 40.7197 21.0369 40.2885 22.9682 39.5077L22.3681 46.5937H16.5898C16.2015 46.5937 15.8867 46.9086 15.8867 47.2969C15.8867 47.6852 16.2015 48 16.5898 48H23.0142C23.3796 48 23.6841 47.7202 23.7148 47.3562L24.1536 42.1758H24.7035C26.0329 42.1758 27.1614 41.1381 27.2727 39.8126L27.5272 36.7468C35.4189 30.0459 35.403 17.9412 27.5275 11.2536ZM24.7048 7.23054C25.3092 7.23054 25.8221 7.7022 25.8726 8.30352L26.0222 10.1135C25.513 9.77119 24.9836 9.45675 24.4369 9.17109L24.2725 7.23054H24.7048ZM7.41997 10.1045L7.56941 8.30436C7.61995 7.7022 8.13295 7.23045 8.73717 7.23045H9.16805L9.00408 9.1664C8.4653 9.44691 7.9957 9.71831 7.41997 10.1045ZM10.4726 8.49065L11.0726 1.40626H22.3679L22.968 8.49233C18.9687 6.87522 14.4822 6.87747 10.4726 8.49065ZM9.16805 40.7696H8.73567C8.13136 40.7696 7.61844 40.298 7.56791 39.6967L7.41829 37.8867C7.92754 38.229 8.45686 38.5435 9.00361 38.8292L9.16805 40.7696ZM25.8711 39.6957C25.8206 40.2979 25.3076 40.7696 24.7033 40.7696H24.2725L24.4368 38.8291C24.9832 38.5436 25.5122 38.2293 26.0212 37.8873L25.8711 39.6957Z" fill="#3772FF"/>
<path d="M29.7441 25.6186C30.1309 25.6454 30.4673 25.3531 30.4941 24.9657C30.5162 24.6462 30.5274 24.3213 30.5274 24C30.5274 16.3865 24.3333 10.1924 16.7197 10.1924C9.10623 10.1924 2.91211 16.3865 2.91211 24C2.91211 31.6135 9.10623 37.8077 16.7197 37.8077C22.8231 37.8077 28.0811 33.837 29.8783 28.1949C29.9962 27.8249 29.7918 27.4293 29.4218 27.3116C29.0516 27.1937 28.6562 27.3981 28.5385 27.7681C26.9303 32.8164 22.2216 36.4014 16.7197 36.4014C9.88165 36.4014 4.31837 30.8381 4.31837 24C4.31837 17.1619 9.88165 11.5986 16.7197 11.5986C23.5578 11.5986 29.1211 17.1619 29.1211 24C29.1211 24.2891 29.1111 24.5815 29.0912 24.8687C29.0644 25.256 29.3567 25.5918 29.7441 25.6186Z" fill="#3772FF"/>
<path d="M12.8241 23.7678C16.6649 19.9337 15.4473 21.1576 15.6889 20.9081C17.2059 19.3678 16.1196 16.7429 13.9451 16.7429C13.3339 16.7429 12.7642 16.9661 12.3275 17.3512C11.8907 16.9662 11.3209 16.7429 10.7098 16.7429C8.54032 16.7429 7.44372 19.3624 8.97016 20.9124L11.8307 23.7679C12.105 24.0417 12.5496 24.0417 12.8241 23.7678ZM10.7097 18.1491C11.1364 18.1491 11.5155 18.4049 11.6755 18.8007C11.9118 19.3853 12.7428 19.3858 12.9792 18.8007C13.1393 18.4048 13.5184 18.1491 13.945 18.1491C14.8768 18.1491 15.3261 19.269 14.6888 19.9193L12.3274 22.2767L9.96776 19.9212C9.32501 19.2685 9.78007 18.1491 10.7097 18.1491Z" fill="#3772FF"/>
<path d="M24.4746 16.7427H18.6504C18.2621 16.7427 17.9473 17.0575 17.9473 17.4458C17.9473 17.8341 18.2621 18.1489 18.6504 18.1489H24.4746C24.8629 18.1489 25.1777 17.8341 25.1777 17.4458C25.1777 17.0575 24.8629 16.7427 24.4746 16.7427Z" fill="#3772FF"/>
<path d="M24.4746 19.655H18.6504C18.2621 19.655 17.9473 19.9698 17.9473 20.3582C17.9473 20.7465 18.2621 21.0613 18.6504 21.0613H24.4746C24.8629 21.0613 25.1777 20.7465 25.1777 20.3582C25.1777 19.9698 24.8629 19.655 24.4746 19.655Z" fill="#3772FF"/>
<path d="M25.1777 23.27C25.1777 22.8817 24.8629 22.5669 24.4746 22.5669H18.6504C18.2621 22.5669 17.9473 22.8817 17.9473 23.27C17.9473 23.6583 18.2621 23.9731 18.6504 23.9731H24.4746C24.8629 23.9731 25.1777 23.6583 25.1777 23.27Z" fill="#3772FF"/>
<path d="M9.49796 31.0457H11.6822C11.9485 31.0457 12.192 30.8952 12.3111 30.657L13.5828 28.1136L15.1662 33.6559C15.346 34.285 16.2122 34.3482 16.4825 33.7536L18.2425 29.8805L19.4647 32.2732C19.703 32.7396 20.3464 32.7882 20.6553 32.3728L21.6495 31.035C21.9008 31.0361 21.7353 31.0353 23.9412 31.0456C24.3279 31.0456 24.6425 30.7329 24.6443 30.3457C24.646 29.9574 24.3327 29.6412 23.9444 29.6393L21.3005 29.627C20.759 29.6214 20.6256 30.1394 20.202 30.6251L18.8317 27.9426C18.5631 27.4169 17.8078 27.4382 17.5654 27.9716L15.9932 31.4312L14.4384 25.9892C14.2628 25.3742 13.4195 25.2957 13.1335 25.868L11.2477 29.6395H9.49805C9.10974 29.6395 8.79492 29.9543 8.79492 30.3426C8.79492 30.7309 9.10964 31.0457 9.49796 31.0457Z" fill="#3772FF"/>
</svg>
