<svg width="64" height="50" viewBox="0 0 64 50" fill="none" xmlns="http://www.w3.org/2000/svg">
<path d="M5.64177 30.5249C5.64177 30.5249 -3.2106 20.724 1.26211 10.2075C2.97195 6.18651 6.31041 3.09709 10.3605 1.4573C15.5198 -0.631521 23.8077 -1.7052 31.7566 7.06596C31.7566 7.06596 41.0546 -4.83556 55.2189 2.38582C60.0537 4.85092 63.3789 9.58757 63.674 15.0061C63.8605 18.4322 63.0511 22.693 60.1708 27.7403C58.4007 30.8423 56.139 33.6319 53.5483 36.0902C50.6237 38.8656 45.2736 43.8059 37.9534 50H33.0844L45.4779 39.8198C45.4779 39.8198 55.2003 32.1599 55.4158 21.8877C55.513 17.2597 53.1355 12.9795 49.2032 10.5377C44.7061 7.74509 37.3879 5.86064 29.1007 14.1479C29.1007 14.1479 21.1335 3.52481 8.73998 10.6068C8.73998 10.6068 -1.8828 16.8035 5.64177 30.5249Z" fill="#3772FF"/>
<path d="M39.155 30.5319L36.808 24.7507L36.1221 23.0615C35.2521 26.2487 34.3287 29.4748 33.4743 32.6617C33.1163 33.9986 32.7539 35.3345 32.3932 36.6711C32.0341 34.4984 31.6738 32.3257 31.2938 30.1563C30.5334 25.8034 29.7775 21.3472 28.9484 16.998C27.4552 20.6817 25.2834 26.0937 23.7831 29.913C17.7403 30.334 11.1808 30.8138 5.19922 31.41C11.3554 31.4493 18.0885 31.3109 24.2619 31.1657L24.6554 31.1566L24.8246 30.7715C25.6746 28.8495 27.1368 25.4995 28.3004 22.8053C29.2746 28.8271 30.3081 34.8392 31.3597 40.8481L32.0423 44.8119L33.0249 40.9175C34.1917 36.2482 35.3212 31.5701 36.4283 26.8862L38.4197 31.1505L38.5473 31.4235C42.0255 31.4398 46.9181 31.4736 50.3469 31.4107C47.1245 31.1044 42.5009 30.7715 39.155 30.5319Z" fill="#001837"/>
</svg>
