<svg width="43" height="40" viewBox="0 0 43 40" fill="none" xmlns="http://www.w3.org/2000/svg">
<path d="M26.3097 36.1661H1.24765V16.1919C1.24765 15.8474 0.968345 15.5681 0.623826 15.5681C0.279308 15.5681 0 15.8474 0 16.1919V36.2077C0 36.8727 0.541065 37.4138 1.20606 37.4138H2.58364V39.3761C2.58364 39.7206 2.86295 39.9999 3.20746 39.9999H8.37483C8.71934 39.9999 8.99865 39.7206 8.99865 39.3761V37.4138H26.3097C26.6542 37.4138 26.9335 37.1345 26.9335 36.7899C26.9335 36.4454 26.6542 36.1661 26.3097 36.1661ZM7.751 38.7523H3.83129V37.4138H7.751V38.7523Z" fill="#3772FF"/>
<path d="M41.3801 5.16229H34.8353V2.70325C34.8353 1.21272 33.6226 0 32.132 0H10.4542C8.96372 0 7.751 1.21272 7.751 2.70325V5.16229H1.20606C0.541065 5.16229 0 5.70335 0 6.36835V13.4733C0 13.8178 0.279308 14.0971 0.623826 14.0971C0.968345 14.0971 1.24765 13.8178 1.24765 13.4733V6.40994H41.3386V36.1662H29.0284C28.6839 36.1662 28.4046 36.4455 28.4046 36.79C28.4046 37.1345 28.6839 37.4139 29.0284 37.4139H33.5876V39.3762C33.5876 39.7207 33.8669 40 34.2114 40H39.3787C39.7233 40 40.0026 39.7207 40.0026 39.3762V37.4139H41.3801C42.0451 37.4139 42.5862 36.8728 42.5862 36.2078V6.36835C42.5862 5.70335 42.0451 5.16229 41.3801 5.16229ZM8.99865 2.70325C8.99865 1.90067 9.65167 1.24765 10.4542 1.24765H32.132C32.9346 1.24765 33.5876 1.90067 33.5876 2.70325V5.16229H32.2516V3.54017C32.2516 3.01275 31.8225 2.58364 31.2951 2.58364H27.6691C27.3246 2.58364 27.0453 2.86295 27.0453 3.20747C27.0453 3.55198 27.3246 3.83129 27.6691 3.83129H31.004V5.16229H11.5823V3.83129H24.9502C25.2947 3.83129 25.574 3.55198 25.574 3.20747C25.574 2.86295 25.2947 2.58364 24.9502 2.58364H11.2912C10.7637 2.58364 10.3346 3.01275 10.3346 3.54017V5.16229H8.99865V2.70325ZM38.7549 38.7524H34.8352V37.4139H38.7549V38.7524Z" fill="#3772FF"/>
<path d="M33.9622 34.8301C34.4438 34.8301 34.8355 34.4384 34.8355 33.9568V8.61921C34.8355 8.13761 34.4438 7.74585 33.9622 7.74585H3.45734C2.97575 7.74585 2.58398 8.13761 2.58398 8.61921V33.9568C2.58398 34.4384 2.97575 34.8301 3.45734 34.8301H33.9622ZM24.5009 33.5825V21.9119H33.5879V33.5825H24.5009ZM33.5879 20.6642H24.5009V8.9935H33.5879V20.6642ZM3.83164 8.9935H23.2533V33.5825H3.83164V8.9935Z" fill="#3772FF"/>
<path d="M26.4046 15.2363L28.6026 17.4304C28.846 17.6735 29.2405 17.6735 29.4841 17.4304L31.6821 15.2363C31.6833 15.2351 31.6846 15.2338 31.6858 15.2326C32.9033 13.9964 32.0317 11.8899 30.2863 11.8899C29.8211 11.8899 29.3859 12.051 29.0432 12.3311C28.7006 12.051 28.2654 11.8899 27.8003 11.8899C26.0605 11.8899 25.1781 13.9911 26.4046 15.2363ZM27.8003 13.1375C28.0939 13.1375 28.3548 13.3136 28.465 13.5861C28.6748 14.1048 29.4119 14.1051 29.6216 13.5861C29.7318 13.3136 29.9927 13.1375 30.2863 13.1375C30.9241 13.1375 31.2358 13.9092 30.7983 14.3556L29.0432 16.1075L27.2896 14.3571C26.8486 13.9092 27.164 13.1375 27.8003 13.1375Z" fill="#3772FF"/>
<path d="M5.7918 16.7446H7.42896C7.66527 16.7446 7.88128 16.6111 7.98691 16.3997L9.85332 12.6668L11.9965 20.1676C12.156 20.7258 12.9245 20.7819 13.1643 20.2543L15.5643 14.9726L17.3179 18.4054C17.5295 18.8196 18.1003 18.8622 18.3741 18.4938L19.6836 16.7318L21.2888 16.7446H21.2939C21.6361 16.7446 21.9148 16.4685 21.9176 16.1257C21.9204 15.7812 21.6433 15.4997 21.2988 15.497L19.3769 15.4817H19.3719C19.1747 15.4817 18.989 15.575 18.8712 15.7334L17.972 16.9432L16.087 13.2533C15.8483 12.786 15.1782 12.8067 14.9635 13.279L12.7301 18.1939L10.6124 10.7821C10.4565 10.2366 9.70843 10.1668 9.45465 10.6746L7.04344 15.4971H5.7918C5.44728 15.4971 5.16797 15.7764 5.16797 16.1209C5.16797 16.4654 5.44719 16.7446 5.7918 16.7446Z" fill="#3772FF"/>
<path d="M21.2938 25.9332H19.6566C19.4203 25.9332 19.2043 26.0667 19.0987 26.2781L17.2323 30.011L15.0892 22.5102C14.9292 21.9503 14.1594 21.8997 13.9214 22.4235L11.5213 27.7051L9.76775 24.2723C9.55615 23.8583 8.98531 23.8156 8.71149 24.184L7.40204 25.9459L5.79681 25.9332C5.79506 25.9332 5.7934 25.9332 5.79173 25.9332C5.44954 25.9332 5.17082 26.2093 5.16799 26.5521C5.16524 26.8966 5.44231 27.178 5.78682 27.1808L7.70871 27.1961C7.90875 27.1988 8.09565 27.1042 8.21434 26.9444L9.11357 25.7346L10.9985 29.4246C11.2368 29.8909 11.907 29.872 12.122 29.3989L14.3555 24.4839L16.4731 31.8958C16.6293 32.4423 17.3766 32.5121 17.6309 32.0033L20.0421 27.1808H21.2937C21.6382 27.1808 21.9176 26.9015 21.9176 26.557C21.9176 26.2124 21.6383 25.9332 21.2938 25.9332Z" fill="#3772FF"/>
<path d="M36.7957 14.1609H39.3793C39.7238 14.1609 40.0031 13.8815 40.0031 13.537V10.9534C40.0031 10.6089 39.7238 10.3296 39.3793 10.3296H36.7957C36.4512 10.3296 36.1719 10.6089 36.1719 10.9534V13.537C36.1719 13.8815 36.4511 14.1609 36.7957 14.1609ZM37.4195 11.5772H38.7555V12.9132H37.4195V11.5772Z" fill="#3772FF"/>
<path d="M36.1719 18.7043C36.1719 19.0488 36.4512 19.3281 36.7957 19.3281H39.3793C39.7238 19.3281 40.0031 19.0488 40.0031 18.7043V16.1206C40.0031 15.7761 39.7238 15.4968 39.3793 15.4968H36.7957C36.4512 15.4968 36.1719 15.7761 36.1719 16.1206V18.7043ZM37.4195 16.7445H38.7555V18.0804H37.4195V16.7445Z" fill="#3772FF"/>
<path d="M38.0875 34.8303C39.1438 34.8303 40.0031 33.9709 40.0031 32.9147C40.0031 31.8583 39.1438 30.999 38.0875 30.999C37.0312 30.999 36.1719 31.8584 36.1719 32.9147C36.1719 33.9709 37.0312 34.8303 38.0875 34.8303ZM38.0875 32.2467C38.4558 32.2467 38.7555 32.5464 38.7555 32.9147C38.7555 33.283 38.4558 33.5826 38.0875 33.5826C37.7192 33.5826 37.4195 33.283 37.4195 32.9147C37.4195 32.5464 37.7192 32.2467 38.0875 32.2467Z" fill="#3772FF"/>
<path d="M31.6283 28.616H28.1082C27.7637 28.616 27.4844 28.8953 27.4844 29.2398C27.4844 29.5843 27.7637 29.8636 28.1082 29.8636H31.6283C31.9728 29.8636 32.2521 29.5843 32.2521 29.2398C32.2521 28.8953 31.9728 28.616 31.6283 28.616Z" fill="#3772FF"/>
<path d="M31.6271 30.999H26.4598C26.1152 30.999 25.8359 31.2783 25.8359 31.6228C25.8359 31.9674 26.1152 32.2467 26.4598 32.2467H31.6271C31.9716 32.2467 32.2509 31.9674 32.2509 31.6228C32.2509 31.2783 31.9716 30.999 31.6271 30.999Z" fill="#3772FF"/>
</svg>
