<svg width="34" height="45" viewBox="0 0 34 45" fill="none" xmlns="http://www.w3.org/2000/svg">
<path d="M32.3796 32.2243C32.0181 32.2108 31.7103 32.4952 31.697 32.8589C31.6038 35.4644 31.7139 37.4684 30.7971 39.7978C29.8762 42.1375 28.3481 43.4346 26.261 43.6523C26.2305 43.6553 25.2205 43.7346 23.524 43.405C22.6448 43.1753 20.1524 42.1775 18.9471 38.1115C18.8438 37.7626 18.4772 37.5635 18.128 37.6669C17.7791 37.7703 17.5801 38.1371 17.6835 38.4861C18.1524 40.0684 18.801 41.2538 19.4996 42.1426C15.9236 40.6112 11.2886 37.5543 6.49729 31.4729C6.4364 31.3904 5.75259 30.4566 4.92292 29.0192C4.63989 28.3047 2.80429 23.13 7.1014 18.8479C7.54241 18.4084 8.27314 17.8977 9.22258 17.5121C8.22745 19.4605 8.66205 21.7992 9.50868 23.7944C9.62985 24.1819 9.8403 25.2556 9.46905 25.952C9.29463 26.2792 9.00492 26.496 8.58323 26.6149C8.23298 26.7138 8.02913 27.0778 8.12789 27.4282C8.22631 27.777 8.58921 27.9827 8.94113 27.8835C9.70744 27.6673 10.2934 27.2116 10.6355 26.5655C11.3554 25.2064 10.7771 23.4307 10.7521 23.3559C10.7152 23.2444 10.3096 22.3834 10.0965 21.3124C10.9815 21.4685 12.399 22.0265 12.7899 23.9804C12.8613 24.3371 13.2082 24.5687 13.5655 24.4973C13.9224 24.4259 14.1538 24.0787 14.0824 23.7218C13.6293 21.4566 12.0208 20.1905 9.96543 19.9664C9.99416 18.0563 11.0303 17.1899 11.3576 16.9638C13.7292 16.6776 15.6273 17.3715 17.5078 18.8446C17.5381 18.8685 19.6468 20.5509 21.5324 23.5188C21.1549 23.729 20.7184 24.0727 20.348 24.6337C19.5201 25.8874 19.734 27.0363 19.816 27.798C19.1056 28.9062 18.1143 29.1874 16.9157 28.4341C16.6073 28.2402 16.2007 28.3332 16.007 28.6413C15.8133 28.9494 15.9061 29.3563 16.2142 29.5499C17.4328 30.3159 18.7506 30.4431 19.9156 29.5938C19.9078 31.0858 19.6315 32.1061 19.1285 32.3189C18.7934 32.4607 18.6365 32.8474 18.7784 33.1826C18.9202 33.5179 19.3071 33.6746 19.6422 33.5328C20.6215 33.1185 21.663 31.6715 21.0634 27.1315C20.916 26.0152 21.4518 25.0575 22.2046 24.6544C23.6441 27.2763 23.6034 28.3796 24.2623 29.5542C23.8904 30.5026 23.035 33.2167 24.6872 34.7707C24.9516 35.0194 25.3688 35.0079 25.6188 34.7421C25.8681 34.477 25.8553 34.0599 25.5903 33.8105C24.8345 33.0997 24.9696 31.7679 25.242 30.7731C25.8387 31.2793 26.5423 31.5433 27.3238 31.5433C27.6878 31.5433 27.9828 31.2482 27.9828 30.8843C27.9828 30.5203 27.6878 30.2252 27.3238 30.2252C25.5439 30.2252 24.9702 27.8234 24.965 27.8009C24.6992 26.6283 23.5323 23.9697 21.9243 21.7273C23.4722 22.0412 24.8271 21.5966 25.8246 20.6674C27.1961 20.7039 27.993 21.3884 27.9925 22.7768C27.9923 23.1407 28.2872 23.4359 28.6512 23.4361H28.6515C29.0154 23.4361 29.3103 23.1412 29.3105 22.7773C29.3112 21.0572 28.434 19.9764 27.0729 19.5491C27.6459 19.1474 28.3334 18.8391 28.9574 19.0239C29.3063 19.1275 29.6731 18.9283 29.7765 18.5793C29.88 18.2304 29.681 17.8636 29.332 17.7602C27.5879 17.2426 25.9132 18.6667 25.0702 19.5614C23.6824 21.0338 21.5687 20.6382 20.0162 19.405C17.6095 16.844 14.9821 15.2465 11.3262 15.639C10.334 15.7455 9.37942 16.021 8.61135 16.3434C9.32301 11.6831 11.4589 7.78542 14.9739 4.74488C15.0191 4.70577 15.2015 4.50622 15.6722 4.16132C15.9658 3.94621 16.0295 3.53383 15.8144 3.24025C15.5994 2.94667 15.1869 2.88305 14.8934 3.09807C14.0699 3.70122 12.4858 5.16754 11.2691 6.73579C9.51325 3.34886 7.19665 1.03897 4.53533 0.0338062C4.18016 -0.100374 1.61339 0.04769 0.454736 2.70731C-0.22529 4.26835 -0.134959 6.12956 0.674323 7.23358C0.80604 7.41319 1.02009 7.51363 1.24187 7.50194C1.27527 7.50027 3.9046 7.39254 6.36856 9.75295C3.78386 11.0433 2.0139 12.8378 1.10339 15.0942C0.967194 15.4317 1.13046 15.8158 1.46788 15.952C1.80468 16.0878 2.1892 15.9257 2.32566 15.5875C3.14909 13.5467 4.8188 11.9276 7.28926 10.772C7.95936 11.6245 8.1271 12.062 8.27841 12.2265C7.73942 13.7562 7.37335 15.3818 7.18232 17.0995C5.02696 18.5249 3.1266 21.567 2.98741 25.0229C1.79888 21.9668 1.62745 19.7059 1.72876 18.259C1.75416 17.8959 1.48044 17.581 1.11736 17.5556C0.753406 17.5299 0.439359 17.8039 0.413964 18.167C-0.0527129 24.8301 5.22107 31.9673 5.44575 32.2679C5.71235 32.6245 6.67074 33.792 7.52563 34.7418V41.5903C7.52563 41.9543 7.8207 42.2493 8.18466 42.2493H10.9199C11.2235 42.2493 11.4877 42.042 11.56 41.7472L12.1874 39.187C15.1492 41.5746 17.8164 42.9405 19.8624 43.7204C21.7729 44.4487 24.5785 45.1372 26.3917 44.9639C28.9762 44.6942 30.9236 43.0747 32.0233 40.2806C33.0226 37.7421 32.915 35.6825 33.014 32.9069C33.0274 32.5432 32.7433 32.2376 32.3796 32.2243ZM1.57789 6.18958C1.20022 5.425 1.22412 4.24216 1.66339 3.23401C2.50044 1.3126 4.17286 1.34881 4.21662 1.32429C7.28504 2.55388 9.26554 5.57781 10.4007 7.94815C9.81895 8.82907 9.31071 9.75278 8.87848 10.7195C6.24756 6.77023 2.76273 6.24819 1.57789 6.18958ZM10.4031 40.9314H8.84394V36.1444C9.59497 36.9093 10.3359 37.6065 11.0622 38.2417L10.4031 40.9314Z" fill="#3772FF"/>
</svg>
